<svg xmlns="http://www.w3.org/2000/svg" fill="none" viewBox="0 0 261 329.9">
<g clip-path="url(#clip0_331_9534)">
<path d="M51.4486 92.6328H41.4073C41.0634 92.6328 40.7847 92.9116 40.7847 93.2554V94.7953C40.7847 95.1392 41.0634 95.4179 41.4073 95.4179H51.4486C51.7924 95.4179 52.0712 95.1392 52.0712 94.7953V93.2554C52.0712 92.9116 51.7924 92.6328 51.4486 92.6328Z" fill="#597EF7"/>
<path d="M51.458 97.9341H41.3978C41.0592 97.9341 40.7847 98.2086 40.7847 98.5472V100.022C40.7847 100.36 41.0592 100.635 41.3978 100.635H51.458C51.7967 100.635 52.0712 100.36 52.0712 100.022V98.5472C52.0712 98.2086 51.7967 97.9341 51.458 97.9341Z" fill="#ADC6FF"/>
<path d="M51.458 103.235H41.3978C41.0592 103.235 40.7847 103.51 40.7847 103.849V105.323C40.7847 105.662 41.0592 105.936 41.3978 105.936H51.458C51.7967 105.936 52.0712 105.662 52.0712 105.323V103.849C52.0712 103.51 51.7967 103.235 51.458 103.235Z" fill="#FF7946"/>
<path d="M51.458 108.536H41.3978C41.0592 108.536 40.7847 108.811 40.7847 109.149V110.624C40.7847 110.962 41.0592 111.237 41.3978 111.237H51.458C51.7967 111.237 52.0712 110.962 52.0712 110.624V109.149C52.0712 108.811 51.7967 108.536 51.458 108.536Z" fill="#ADC6FF"/>
<path d="M120.001 57.1567H31.705C30.1884 57.1567 28.959 58.3862 28.959 59.9028V123.311C28.959 124.827 30.1884 126.057 31.705 126.057H120.001C121.518 126.057 122.747 124.827 122.747 123.311V59.9028C122.747 58.3862 121.518 57.1567 120.001 57.1567Z" fill="#E4EBF7"/>
<path d="M113.956 69.3896H60.5864C60.0099 69.3896 59.5425 69.857 59.5425 70.4336V118.91C59.5425 119.486 60.0099 119.954 60.5864 119.954H113.956C114.533 119.954 115 119.486 115 118.91V70.4336C115 69.857 114.533 69.3896 113.956 69.3896Z" fill="#597EF7"/>
<path d="M105.621 84.8853H66.4746V87.3319H105.621V84.8853Z" fill="white"/>
<path d="M86.0478 93.4487H66.4746V95.8954H86.0478V93.4487Z" fill="#FAAD14"/>
<path d="M102.767 76.3218H83.1934V78.7684H102.767V76.3218Z" fill="#FAAD14"/>
<path d="M102.359 110.167H66.4746V112.614H102.359V110.167Z" fill="white"/>
<path d="M78.3001 76.3218H66.4746V78.7684H78.3001V76.3218Z" fill="white"/>
<path d="M95.8343 93.4487H90.1255V95.8954H95.8343V93.4487Z" fill="#E4EBF7"/>
<path d="M95.4267 101.604H66.4746V104.051H95.4267V101.604Z" fill="#E4EBF7"/>
<path d="M31.4712 53.8945H120.188C121.576 53.8945 122.7 54.9959 122.7 56.3545V63.6853H28.959V56.3545C28.959 54.9959 30.0837 53.8945 31.4712 53.8945Z" fill="#253368"/>
<path d="M34.422 60.6684C35.4123 60.6684 36.2151 59.8823 36.2151 58.9126C36.2151 57.9428 35.4123 57.1567 34.422 57.1567C33.4317 57.1567 32.6289 57.9428 32.6289 58.9126C32.6289 59.8823 33.4317 60.6684 34.422 60.6684Z" fill="#FF7946"/>
<path d="M41.3546 60.6684C42.3449 60.6684 43.1477 59.8823 43.1477 58.9126C43.1477 57.9428 42.3449 57.1567 41.3546 57.1567C40.3643 57.1567 39.5615 57.9428 39.5615 58.9126C39.5615 59.8823 40.3643 60.6684 41.3546 60.6684Z" fill="#FAAD14"/>
<path d="M47.879 60.6684C48.8693 60.6684 49.6721 59.8823 49.6721 58.9126C49.6721 57.9428 48.8693 57.1567 47.879 57.1567C46.8887 57.1567 46.0859 57.9428 46.0859 58.9126C46.0859 59.8823 46.8887 60.6684 47.879 60.6684Z" fill="#7CB305"/>
<path d="M55.592 68.5742H37.3954C36.7901 68.5742 36.2993 69.065 36.2993 69.6703V118.858C36.2993 119.463 36.7901 119.954 37.3954 119.954H55.592C56.1974 119.954 56.6881 119.463 56.6881 118.858V69.6703C56.6881 69.065 56.1974 68.5742 55.592 68.5742Z" fill="white"/>
<path d="M51.4486 92.6328H41.4073C41.0634 92.6328 40.7847 92.9116 40.7847 93.2554V94.7953C40.7847 95.1392 41.0634 95.4179 41.4073 95.4179H51.4486C51.7924 95.4179 52.0712 95.1392 52.0712 94.7953V93.2554C52.0712 92.9116 51.7924 92.6328 51.4486 92.6328Z" fill="#597EF7"/>
<path d="M51.458 97.9341H41.3978C41.0592 97.9341 40.7847 98.2086 40.7847 98.5472V100.022C40.7847 100.36 41.0592 100.635 41.3978 100.635H51.458C51.7967 100.635 52.0712 100.36 52.0712 100.022V98.5472C52.0712 98.2086 51.7967 97.9341 51.458 97.9341Z" fill="#ADC6FF"/>
<path d="M51.458 103.235H41.3978C41.0592 103.235 40.7847 103.51 40.7847 103.849V105.323C40.7847 105.662 41.0592 105.936 41.3978 105.936H51.458C51.7967 105.936 52.0712 105.662 52.0712 105.323V103.849C52.0712 103.51 51.7967 103.235 51.458 103.235Z" fill="#FF7946"/>
<path d="M51.458 108.536H41.3978C41.0592 108.536 40.7847 108.811 40.7847 109.149V110.624C40.7847 110.962 41.0592 111.237 41.3978 111.237H51.458C51.7967 111.237 52.0712 110.962 52.0712 110.624V109.149C52.0712 108.811 51.7967 108.536 51.458 108.536Z" fill="#ADC6FF"/>
<path d="M46.2873 85.3151C49.0717 85.3151 51.3289 83.0322 51.3289 80.2161C51.3289 77.4001 49.0717 75.1172 46.2873 75.1172C43.5028 75.1172 41.2456 77.4001 41.2456 80.2161C41.2456 83.0322 43.5028 85.3151 46.2873 85.3151Z" fill="#FAAD14"/>
<path d="M46.2872 85.3149C47.7403 85.3157 49.1193 84.6665 50.0543 83.5414C49.3176 82.1271 47.867 81.2417 46.2864 81.2417C44.7058 81.2417 43.2552 82.1271 42.5186 83.5414C43.4539 84.6667 44.8336 85.316 46.2872 85.3149Z" fill="#253368"/>
<path d="M46.3141 81.4447C47.3613 81.4447 48.2102 80.5862 48.2102 79.5271C48.2102 78.4679 47.3613 77.6094 46.3141 77.6094C45.2669 77.6094 44.418 78.4679 44.418 79.5271C44.418 80.5862 45.2669 81.4447 46.3141 81.4447Z" fill="#253368"/>
<path d="M143.546 75.3035C143.546 68.4111 137.957 62.7651 131.062 62.7651C124.168 62.7651 118.579 68.4111 118.579 75.3035C118.579 78.0313 120.027 81.5549 122.353 84.1527C124.659 86.7269 125.316 91.0606 125.316 94.5163V95.8712H136.809V94.5276C136.809 91.0719 137.466 86.7464 139.76 84.164C142.094 81.5395 143.546 77.7029 143.546 75.3035Z" fill="#FFE58F"/>
<path d="M141.491 75.2695C141.491 69.5125 136.824 64.7954 131.063 64.7954C125.301 64.7954 120.635 69.512 120.635 75.2695C120.635 77.5501 121.844 80.4924 123.788 82.6625C125.714 84.8132 127.145 88.4334 127.145 91.3201V92.4509H134.981V91.3298C134.981 88.4426 136.411 84.8291 138.329 82.6718C140.278 80.4795 141.491 77.2746 141.491 75.27V75.2695Z" fill="#FAAD14"/>
<path d="M134.231 102.194H127.894C127.673 102.194 127.471 102.05 127.35 101.813L126.488 99.583H135.638L134.776 101.813C134.655 102.05 134.453 102.194 134.232 102.194H134.231Z" fill="#253368"/>
<path d="M135.77 90.7163H126.355C125.656 90.7163 125.089 91.2834 125.089 91.9828V99.2762C125.089 99.9757 125.656 100.543 126.355 100.543H135.77C136.47 100.543 137.037 99.9757 137.037 99.2762V91.9828C137.037 91.2834 136.47 90.7163 135.77 90.7163Z" fill="#597EF7"/>
<path d="M131.835 93.3496C131.952 93.3496 132.046 93.4441 132.046 93.5606C132.046 93.6741 131.957 93.7666 131.844 93.7714L131.835 93.7716H125.104C124.988 93.7716 124.893 93.6771 124.893 93.5606C124.893 93.4471 124.983 93.3546 125.095 93.3498L125.104 93.3496H131.835Z" fill="white"/>
<path d="M131.835 97.7183C131.952 97.7183 132.046 97.8127 132.046 97.9293C132.046 98.0427 131.957 98.1353 131.844 98.1401L131.835 98.1403H125.104C124.988 98.1403 124.893 98.0458 124.893 97.9293C124.893 97.8158 124.983 97.7233 125.095 97.7185L125.104 97.7183H131.835Z" fill="white"/>
<path d="M136.998 95.5337C137.114 95.5337 137.209 95.6282 137.209 95.7447C137.209 95.8582 137.119 95.9507 137.007 95.9555L136.998 95.9557H130.267C130.15 95.9557 130.056 95.8612 130.056 95.7447C130.056 95.6312 130.145 95.5387 130.258 95.5339L130.267 95.5337H136.998Z" fill="white"/>
<path d="M131.914 70.2643L127.208 77.4322C126.955 77.8208 127.227 78.2987 127.684 78.2987H129.792L127.2 83.1943C127.007 83.5902 127.505 83.9575 127.81 83.6445L134.859 76.5632C135.219 76.1946 134.963 75.5652 134.454 75.5652H131.267L132.6 70.5769C132.705 70.1511 132.151 69.9013 131.914 70.2643Z" fill="white"/>
<path fill-rule="evenodd" clip-rule="evenodd" d="M96.5466 162.042L88.0718 188.665H93.1955L101.67 162.042H96.5466Z" fill="#597EF7"/>
<path fill-rule="evenodd" clip-rule="evenodd" d="M84.462 165.068H79.0229H75.5941C75.3266 165.068 75.1099 165.285 75.1099 165.553V168.981V181.725V185.154C75.1099 185.421 75.3266 185.638 75.5941 185.638H79.0229H84.462C84.7295 185.638 84.9463 185.421 84.9463 185.154V182.209C84.9463 181.942 84.7295 181.725 84.462 181.725H79.0229V168.981H84.462C84.7295 168.981 84.9463 168.765 84.9463 168.497V165.553C84.9463 165.285 84.7295 165.068 84.462 165.068Z" fill="#CCD7EE"/>
<path fill-rule="evenodd" clip-rule="evenodd" d="M114.148 165.068H110.719H105.28C105.013 165.068 104.796 165.285 104.796 165.553V168.497C104.796 168.765 105.013 168.981 105.28 168.981H110.719V181.725H105.28C105.013 181.725 104.796 181.942 104.796 182.209V185.154C104.796 185.421 105.013 185.638 105.28 185.638H110.719H114.148C114.416 185.638 114.632 185.421 114.632 185.154V182.209V168.497V165.553C114.632 165.285 114.416 165.068 114.148 165.068Z" fill="#CCD7EE"/>
<g clip-path="url(#clip1_331_9534)">
<path fill-rule="evenodd" clip-rule="evenodd" d="M108.42 153.044C111.016 156.638 115.967 157.58 119.701 155.19L153.53 133.546C158.506 130.362 159.783 123.651 156.324 118.863C152.906 114.132 146.239 113.191 141.645 116.792L110.039 141.57C106.506 144.339 105.792 149.405 108.42 153.044Z" fill="#FFC999"/>
<path fill-rule="evenodd" clip-rule="evenodd" d="M133.478 147.929L154.966 134.3C159.504 130.773 159.506 121.726 155.899 117.252C152.292 112.779 145.717 112.133 141.309 115.819L121.166 132.66C121.166 132.66 127.194 144.834 133.478 147.929Z" fill="#597EF7"/>
<path fill-rule="evenodd" clip-rule="evenodd" d="M94.1589 104.863C91.9866 105.987 90.9958 108.556 91.8507 110.847L106.882 151.127C108.609 155.753 113.949 157.879 118.382 155.707C122.715 153.584 124.353 148.24 121.953 144.054L100.573 106.754C99.286 104.507 96.4586 103.674 94.1589 104.863Z" fill="#FFC999"/>
<path fill-rule="evenodd" clip-rule="evenodd" d="M167.791 114.063L162.349 108.124L164.065 88.5811L179.281 89.9984L179.204 109.338L167.791 114.063Z" fill="#FFC999"/>
<path fill-rule="evenodd" clip-rule="evenodd" d="M160.175 86.6507C160.175 86.6507 157.917 84.1661 156.886 85.7604C155.855 87.3554 157.397 93.2153 159.919 93.4426C163.289 93.7463 160.175 86.6507 160.175 86.6507Z" fill="#FFC999"/>
<path fill-rule="evenodd" clip-rule="evenodd" d="M174.429 101.976C174.429 101.976 169.345 105.886 162.9 101.659C158.26 98.616 158 88.109 159.148 80.4386C159.798 76.0978 161.879 73.8164 166.166 72.6584C170.454 71.5004 181.972 71.8132 181.649 84.635C181.288 98.9165 174.429 101.976 174.429 101.976Z" fill="#FFC999"/>
<path d="M166.497 82.6867L166.456 82.6921C166.343 82.7168 166.268 82.8181 166.272 82.9289L166.278 82.9707L166.868 85.6511L165.202 92.8621C165.172 92.9919 165.256 93.1175 165.382 93.1436L165.421 93.1483L168.491 93.2698C168.62 93.2749 168.729 93.1745 168.734 93.0454C168.739 92.9293 168.658 92.8296 168.548 92.8071L168.51 92.8025L165.722 92.692L167.336 85.7044C167.341 85.6819 167.343 85.6587 167.341 85.6357L167.336 85.6015L166.734 82.8701C166.709 82.758 166.608 82.6825 166.497 82.6867Z" fill="#DD936F"/>
<path d="M169.45 82.0748C169.402 82.4158 169.64 82.731 169.981 82.7789L172.03 83.078L172.293 83.1154C174.292 83.3964 175.506 83.4971 176.233 83.3761C176.572 83.3196 176.802 82.9985 176.745 82.6588C176.692 82.3392 176.405 82.1171 176.088 82.1392L175.91 82.1619C175.385 82.217 174.427 82.1428 173.001 81.9537L172.07 81.8241L170.154 81.5442C169.813 81.4963 169.498 81.7339 169.45 82.0748Z" fill="#253368"/>
<path d="M170.972 95.1417C170.932 94.9657 170.758 94.8552 170.582 94.8947L170.465 94.9177L170.419 94.9259C170.279 94.9506 170.113 94.9755 169.923 94.9987C168.646 95.1552 167.094 95.1594 165.341 94.9096C165.163 94.8842 164.997 95.0083 164.972 95.1869C164.946 95.3654 165.07 95.5308 165.249 95.5562C167.061 95.8145 168.671 95.8101 170.003 95.647L170.232 95.6166C170.305 95.6063 170.374 95.5958 170.438 95.5852L170.669 95.5438C170.692 95.5391 170.711 95.5351 170.725 95.532C170.901 95.4924 171.012 95.3177 170.972 95.1417Z" fill="#FF7946"/>
<path fill-rule="evenodd" clip-rule="evenodd" d="M180.023 90.0854L182.67 85.2215C182.67 85.2215 184.466 78.1487 182.909 75.0365C180.493 70.2072 174.635 70.1601 171.197 68.7886C167.76 67.4163 167.828 66.2479 166.412 66.4007C164.996 66.5529 159.425 70.1967 158.694 74.1587C158.05 77.6418 158.675 86.5839 158.675 86.5839C158.675 86.5839 159.895 78.7182 160.718 76.6556C163.506 75.5877 173.515 75.8294 177.653 77.2415C177.653 77.2415 177.935 79.9402 178.087 81.8395C180.276 83.5057 180.023 90.0854 180.023 90.0854Z" fill="#253368"/>
<path d="M162.82 101.211C162.736 101.113 162.588 101.102 162.49 101.186C162.392 101.27 162.381 101.418 162.465 101.516C162.529 101.59 162.652 101.713 162.834 101.869C163.134 102.125 163.496 102.38 163.922 102.618C166.214 103.896 169.276 104.166 173.139 102.813C173.261 102.77 173.325 102.637 173.282 102.515C173.24 102.393 173.106 102.329 172.984 102.372C169.248 103.68 166.325 103.422 164.15 102.209C163.751 101.987 163.415 101.75 163.138 101.514L163.026 101.415C162.925 101.324 162.857 101.253 162.82 101.211Z" fill="#DD936F"/>
<path d="M166.599 85.1877C166.341 85.1694 166.118 85.3635 166.099 85.6211C166.082 85.8616 166.25 86.0724 166.482 86.1143L166.533 86.1207L168.789 86.2807C169.047 86.299 169.271 86.1049 169.289 85.8473C169.306 85.6068 169.138 85.396 168.906 85.3541L168.855 85.3477L166.599 85.1877Z" fill="#253368"/>
<path d="M168.557 86.7556C168.085 86.5357 167.6 86.4183 167.123 86.4654C166.721 86.5052 166.353 86.6636 166.044 86.9519C165.855 87.1281 165.845 87.424 166.021 87.6128C166.197 87.8017 166.493 87.8119 166.682 87.6357C166.836 87.4917 167.011 87.4163 167.215 87.3961C167.499 87.3681 167.829 87.4481 168.163 87.6036C168.341 87.6865 168.476 87.7683 168.545 87.817C168.755 87.9669 169.047 87.9179 169.197 87.7076C169.347 87.4973 169.298 87.2052 169.087 87.0553C168.976 86.9758 168.793 86.8652 168.557 86.7556Z" fill="#253368"/>
<path d="M165.064 81.301C163.986 80.8663 162.894 80.6277 161.849 80.6941C161.112 80.7409 160.43 80.9408 159.823 81.3147C159.53 81.4954 159.439 81.8794 159.62 82.1725C159.8 82.4656 160.184 82.5568 160.478 82.3762C160.902 82.1149 161.386 81.9728 161.928 81.9384C162.759 81.8856 163.678 82.0864 164.598 82.4573C164.83 82.551 165.048 82.6501 165.249 82.75L165.395 82.825C165.536 82.8986 165.633 82.9541 165.679 82.9826C165.973 83.163 166.357 83.0714 166.537 82.7781C166.717 82.4849 166.626 82.1009 166.332 81.9205L166.2 81.8419C165.934 81.6896 165.545 81.4948 165.064 81.301Z" fill="#253368"/>
<path d="M166.584 97.2709C166.455 97.2634 166.344 97.3618 166.337 97.4908C166.33 97.6068 166.409 97.708 166.519 97.7325L166.557 97.7378L168.397 97.8449C168.526 97.8524 168.636 97.754 168.644 97.625C168.65 97.509 168.571 97.4078 168.461 97.3833L168.424 97.378L166.584 97.2709Z" fill="#DD936F"/>
<path d="M177.214 85.8151C176.957 85.8016 176.736 85.9996 176.723 86.2576C176.71 86.4983 176.882 86.706 177.115 86.7437L177.165 86.7491L180.869 86.9437C181.127 86.9573 181.347 86.7592 181.36 86.5013C181.373 86.2606 181.201 86.0528 180.968 86.0152L180.918 86.0097L177.214 85.8151Z" fill="#253368"/>
<path fill-rule="evenodd" clip-rule="evenodd" d="M176.955 85.5348L169.885 85.1246C169.392 85.0959 168.969 85.4714 168.943 85.9645C168.897 86.8861 168.863 88.3655 169.029 89.6437C169.225 91.1504 170.512 92.1413 172.024 92.2993C173.912 92.4972 175.611 92.5971 176.527 91.6645C177.923 90.2432 177.746 87.76 177.794 86.4531C177.811 85.9737 177.434 85.5622 176.955 85.5348Z" fill="white"/>
<path d="M169.894 84.9691L176.964 85.3793C177.528 85.4116 177.97 85.895 177.949 86.4588L177.942 86.7668L177.934 87.325C177.919 88.1544 177.889 88.6176 177.798 89.1879C177.624 90.2723 177.263 91.1375 176.639 91.7736C175.807 92.6201 174.591 92.725 172.008 92.4542C170.357 92.2817 169.072 91.1876 168.874 89.6637C168.733 88.5779 168.72 87.291 168.788 85.9565C168.818 85.3776 169.314 84.9353 169.894 84.9691ZM169.876 85.2801C169.49 85.2576 169.157 85.5349 169.105 85.9093L169.099 85.9724C169.032 87.2896 169.045 88.5601 169.183 89.6236C169.362 90.9949 170.526 91.9861 172.04 92.1444L172.378 92.1783C174.63 92.3939 175.714 92.27 176.416 91.5553C176.989 90.9719 177.326 90.1647 177.49 89.1387L177.521 88.9352C177.586 88.4671 177.61 88.0309 177.622 87.3162L177.637 86.494C177.637 86.4785 177.638 86.463 177.638 86.4474C177.653 86.0534 177.341 85.7129 176.946 85.6903L169.876 85.2801Z" fill="#253368"/>
<path d="M172.016 86.9961C171.844 86.9862 171.696 87.1175 171.686 87.2895C171.63 88.2665 172.288 89.1149 173.181 89.1674C174.073 89.2191 174.825 88.4522 174.882 87.475C174.892 87.3031 174.76 87.1556 174.588 87.1457C174.416 87.1358 174.269 87.2671 174.259 87.4391C174.222 88.0896 173.745 88.5753 173.217 88.5447C172.688 88.5136 172.271 87.9761 172.309 87.3255C172.319 87.1535 172.188 87.0061 172.016 86.9961Z" fill="#253368"/>
<path fill-rule="evenodd" clip-rule="evenodd" d="M165.933 84.8164L157.93 84.3521C157.565 85.5042 157.589 90.0435 158.906 91.0924C160.691 92.1629 164.431 91.9618 165.065 91.0134C166.028 89.5745 166.518 86.7517 166.573 85.5277C166.59 85.1548 166.306 84.838 165.933 84.8164Z" fill="white"/>
<path d="M157.939 84.1966L165.942 84.6609C166.4 84.6874 166.75 85.0764 166.729 85.5348C166.65 87.2688 166.029 89.8535 165.195 91.1C164.473 92.1791 160.598 92.2888 158.826 91.226C157.633 90.2774 157.252 85.9797 157.781 84.3051C157.803 84.2371 157.868 84.1924 157.939 84.1966ZM158.045 84.5148L158.025 84.5909C157.613 86.2802 157.993 90.1663 159.003 90.9706C160.632 91.9461 164.324 91.8416 164.936 90.9268C165.732 89.7365 166.342 87.203 166.418 85.5207C166.431 85.2324 166.212 84.9886 165.924 84.972L158.045 84.5148Z" fill="#253368"/>
<path d="M162.027 86.4161C161.855 86.406 161.707 86.5372 161.697 86.7092C161.64 87.6864 162.298 88.5357 163.191 88.5874C164.084 88.6391 164.836 87.872 164.893 86.895C164.902 86.723 164.771 86.5756 164.599 86.5656C164.427 86.5557 164.28 86.687 164.27 86.859C164.232 87.5094 163.756 87.9953 163.227 87.9647C162.699 87.9341 162.282 87.3962 162.32 86.7457C162.33 86.5737 162.199 86.4261 162.027 86.4161Z" fill="#253368"/>
<path d="M168.958 84.8816C168.699 84.8734 168.483 85.076 168.475 85.3341C168.468 85.5751 168.644 85.7792 168.877 85.812L168.928 85.8164L177.704 86.0953C177.962 86.1035 178.178 85.9009 178.186 85.6427C178.194 85.4018 178.018 85.1977 177.785 85.1648L177.734 85.1605L168.958 84.8816Z" fill="#253368"/>
<path d="M157.888 84.0579C157.63 84.0393 157.406 84.233 157.387 84.4906C157.37 84.7311 157.538 84.9421 157.77 84.9843L157.82 84.9907L166.401 85.6099C166.658 85.6285 166.882 85.4347 166.901 85.1771C166.918 84.9367 166.75 84.7256 166.518 84.6834L166.468 84.677L157.888 84.0579Z" fill="#253368"/>
<path fill-rule="evenodd" clip-rule="evenodd" d="M181.265 86.1285C182.188 85.2128 183.597 84.981 184.57 86.0743C186.138 87.8358 184.537 94.2496 180.217 94.4403C178.582 94.1837 179.826 87.5569 181.265 86.1285Z" fill="#FFC999"/>
<path fill-rule="evenodd" clip-rule="evenodd" d="M185.706 166.419C185.706 166.419 189.581 147.02 191.296 139.854C193.011 132.687 195.615 115.529 192.655 114.244C189.693 112.96 182.604 110.231 182.604 110.231C182.604 110.231 175.571 111.135 169.218 112.487C164.19 113.558 165.617 108.837 159.52 109.844C156.938 110.271 148.835 111.548 144.789 113.755C143.167 114.64 143.429 120.014 143.198 125.238C142.463 141.911 146.531 167.457 146.531 167.457C146.531 167.457 144.119 169.937 147.043 173.152C148.493 174.657 154.767 174.147 162.8 174.167C171.943 174.189 182.698 175.337 184.694 173.599C188.442 170.333 185.706 166.419 185.706 166.419Z" fill="#597EF7"/>
<path fill-rule="evenodd" clip-rule="evenodd" d="M162.108 107.338L168.237 113.223L160.882 118.372L157.694 110.526L162.108 107.338Z" fill="#597EF7"/>
<path fill-rule="evenodd" clip-rule="evenodd" d="M178.866 328.799L165.981 206.826L165.468 206.573L151.942 329.08C151.942 329.08 141.858 331.417 136.529 328.218C136.321 304.465 141.914 227.306 144.281 192.069C144.662 186.396 146.406 178.685 146.754 176.542C162.945 173.806 184.879 177.751 184.879 177.751L185.827 180.596C186.011 181.149 186.122 181.724 186.158 182.306L196.324 327.595C196.324 327.595 186.359 331.202 178.866 328.799Z" fill="#ADC6FF"/>
<path d="M157.213 201.85C157.097 201.794 156.957 201.842 156.901 201.958C156.85 202.061 156.883 202.183 156.972 202.249L157.008 202.271L166.766 207.039C166.882 207.096 167.022 207.048 167.079 206.932C167.129 206.829 167.097 206.707 167.007 206.641L166.971 206.619L157.213 201.85Z" fill="#597EF7"/>
<path fill-rule="evenodd" clip-rule="evenodd" d="M184.791 173.548C184.791 173.548 164.175 170.501 147.037 173.503C146.896 175.022 146.749 176.893 146.749 176.893C146.749 176.893 161.413 177.903 185.124 178.487C185.058 174.364 184.791 173.548 184.791 173.548Z" fill="#ADC6FF"/>
<path d="M178.113 177.903C170.603 177.292 162.894 177.057 155.695 177.417C152.67 177.568 149.815 177.823 147.16 178.19C147.033 178.208 146.943 178.326 146.961 178.454C146.979 178.582 147.097 178.671 147.225 178.654C149.865 178.288 152.706 178.034 155.719 177.884C162.894 177.525 170.584 177.76 178.075 178.369L179.264 178.47C180.428 178.571 181.516 178.677 182.517 178.782L183.639 178.905L184.439 178.999C184.515 179.009 184.573 179.016 184.612 179.021C184.74 179.037 184.858 178.947 184.874 178.819C184.891 178.691 184.8 178.574 184.672 178.557L184.211 178.501C183.888 178.462 183.519 178.42 183.107 178.375L182.228 178.282C180.978 178.153 179.599 178.024 178.113 177.903Z" fill="#597EF7"/>
<path d="M178.195 172.754C170.685 172.143 162.977 171.908 155.778 172.268C152.752 172.419 149.898 172.674 147.243 173.041C147.115 173.059 147.026 173.177 147.043 173.305C147.061 173.433 147.179 173.522 147.307 173.505C149.948 173.139 152.789 172.885 155.801 172.735C162.977 172.377 170.666 172.611 178.157 173.22L178.955 173.287C180.136 173.388 181.242 173.493 182.262 173.598L183.535 173.735L184.695 173.872C184.823 173.888 184.94 173.798 184.957 173.67C184.973 173.542 184.883 173.425 184.754 173.408L184.293 173.352C184.024 173.32 183.723 173.285 183.392 173.249L182.311 173.133C181.06 173.004 179.682 172.875 178.195 172.754Z" fill="#597EF7"/>
<path d="M164.135 173.075C164.006 173.072 163.899 173.174 163.896 173.303L163.87 174.523C163.86 175.047 163.85 175.624 163.841 176.249C163.763 181.426 163.758 186.92 163.874 192.066L163.903 193.237C164.03 197.989 164.259 201.973 164.609 204.961C164.624 205.09 164.74 205.181 164.869 205.166C164.997 205.151 165.089 205.035 165.074 204.907L165.018 204.416C164.674 201.254 164.455 197.05 164.342 192.056C164.235 187.311 164.231 182.27 164.292 177.455L164.312 175.991L164.363 173.315C164.366 173.186 164.264 173.079 164.135 173.075Z" fill="#597EF7"/>
<path fill-rule="evenodd" clip-rule="evenodd" d="M160.126 174.767C160.117 175.348 160.476 175.825 160.929 175.833C161.381 175.84 161.755 175.375 161.764 174.793C161.774 174.211 161.415 173.734 160.962 173.726C160.51 173.719 160.136 174.185 160.126 174.767Z" fill="white"/>
<path fill-rule="evenodd" clip-rule="evenodd" d="M168.204 112.744L173.878 120.209L182.355 110.248L179.251 106.367L168.204 112.744Z" fill="#597EF7"/>
<path d="M167.95 113.148C167.788 113.088 167.609 113.171 167.549 113.333L167.49 113.507L167.432 113.693C167.412 113.761 167.39 113.834 167.367 113.912L167.333 114.034C167.19 114.538 167.035 115.158 166.868 115.903L166.777 116.322C166.22 118.91 165.664 122.331 165.144 126.694L165.006 127.884C164.446 132.817 163.966 138.611 163.587 145.336L163.556 145.899C162.991 156.149 163.122 164.942 163.614 171.515C163.627 171.687 163.776 171.816 163.948 171.803C164.12 171.79 164.249 171.64 164.236 171.469L164.187 170.795C163.746 164.439 163.639 156.107 164.151 146.451L164.179 145.933C164.562 138.98 165.052 133.012 165.625 127.955L165.719 127.143C166.25 122.619 166.819 119.095 167.387 116.453L167.477 116.04C167.626 115.373 167.766 114.808 167.895 114.341L167.933 114.203C167.979 114.041 168.02 113.901 168.057 113.783L168.121 113.588C168.127 113.57 168.131 113.557 168.135 113.548C168.194 113.386 168.111 113.207 167.95 113.148Z" fill="#253368"/>
<path d="M143.153 124.018C143.001 123.89 142.787 123.913 142.663 124.064C142.61 124.128 142.582 124.2 142.559 124.293C142.534 124.4 142.515 124.55 142.501 124.746L142.495 124.848C142.472 125.26 142.468 125.86 142.484 126.627L142.493 126.994C142.544 128.94 142.701 131.729 142.955 135.078L143.05 136.298C143.683 144.277 144.739 154.181 146.158 164.942L146.31 166.081L146.252 166.23L146.202 166.365C146.098 166.648 145.995 166.961 145.898 167.296C145.664 168.11 145.507 168.918 145.466 169.678C145.396 170.949 145.65 171.983 146.326 172.681C146.446 172.804 146.644 172.808 146.767 172.688C146.891 172.568 146.894 172.37 146.775 172.247C146.241 171.696 146.027 170.826 146.088 169.712C146.127 169.005 146.275 168.241 146.498 167.469C146.571 167.213 146.65 166.97 146.728 166.744L146.835 166.452C146.871 166.357 146.899 166.286 146.917 166.244C146.938 166.192 146.946 166.136 146.939 166.081L146.697 164.253C145.293 153.536 144.252 143.695 143.636 135.801L143.553 134.709C143.33 131.726 143.186 129.207 143.127 127.362L143.108 126.639C143.093 125.929 143.095 125.367 143.113 124.971L143.118 124.883C143.125 124.755 143.134 124.65 143.144 124.568L143.155 124.493L143.16 124.49L143.192 124.457C143.303 124.325 143.285 124.128 143.153 124.018Z" fill="#253368"/>
<path d="M159.048 122.667L159.477 122.704C159.615 122.717 159.75 122.73 159.879 122.742L160.511 122.81L160.705 122.833C160.876 122.855 161 123.006 160.989 123.178L160.234 134.813C160.227 134.924 160.164 135.023 160.068 135.077L153.765 138.603C153.657 138.664 153.524 138.658 153.421 138.588L148.553 135.264C148.464 135.203 148.411 135.103 148.41 134.995L148.415 132.878L148.422 131.527C148.438 129.188 148.466 126.583 148.512 123.761C148.514 123.635 148.588 123.522 148.702 123.469C149.931 122.906 151.707 122.61 153.895 122.527C155.548 122.464 157.316 122.526 159.048 122.667ZM153.687 123.189C151.839 123.274 150.318 123.52 149.235 123.952L149.162 123.982L149.121 126.85C149.102 128.341 149.088 129.757 149.078 131.09L149.065 133.613L149.064 134.822L153.622 137.934L159.594 134.593L160.318 123.445L160.183 123.43C159.829 123.392 159.43 123.354 158.995 123.318C157.286 123.179 155.543 123.117 153.92 123.179L153.687 123.189Z" fill="#253368"/>
<path fill-rule="evenodd" clip-rule="evenodd" d="M167.763 118.355C167.754 118.937 168.139 119.415 168.624 119.422C169.108 119.43 169.509 118.965 169.518 118.383C169.528 117.802 169.142 117.324 168.658 117.316C168.172 117.308 167.772 117.773 167.763 118.355Z" fill="white"/>
<path fill-rule="evenodd" clip-rule="evenodd" d="M166.362 129.043C166.353 129.624 166.739 130.102 167.223 130.11C167.708 130.118 168.108 129.653 168.118 129.071C168.127 128.489 167.742 128.011 167.257 128.004C166.772 127.996 166.372 128.461 166.362 129.043Z" fill="white"/>
<path fill-rule="evenodd" clip-rule="evenodd" d="M165.474 140.616C165.465 141.198 165.85 141.675 166.335 141.683C166.82 141.691 167.22 141.226 167.23 140.644C167.239 140.063 166.854 139.585 166.369 139.577C165.884 139.569 165.483 140.035 165.474 140.616Z" fill="white"/>
<path fill-rule="evenodd" clip-rule="evenodd" d="M165.124 151.496C165.114 152.077 165.5 152.555 165.984 152.563C166.469 152.571 166.869 152.106 166.879 151.524C166.888 150.943 166.503 150.464 166.018 150.457C165.534 150.449 165.133 150.914 165.124 151.496Z" fill="white"/>
<path fill-rule="evenodd" clip-rule="evenodd" d="M165.068 165.892C165.059 166.474 165.444 166.951 165.929 166.959C166.413 166.967 166.814 166.502 166.824 165.92C166.833 165.339 166.447 164.86 165.963 164.853C165.477 164.845 165.077 165.31 165.068 165.892Z" fill="white"/>
<path d="M182.447 110.314C182.328 110.213 182.154 110.217 182.04 110.317L182.007 110.35L174.052 119.731L168.373 113.125C168.271 113.006 168.099 112.983 167.97 113.064L167.933 113.091C167.814 113.194 167.791 113.366 167.872 113.494L167.9 113.531L173.817 120.415C173.932 120.549 174.131 120.559 174.258 120.447L174.291 120.414L182.483 110.754C182.595 110.622 182.578 110.426 182.447 110.314Z" fill="#253368"/>
<path d="M158.7 110.736C158.648 110.572 158.473 110.482 158.309 110.534C158.158 110.582 158.069 110.733 158.096 110.884L158.106 110.926L160.585 118.712C160.646 118.905 160.868 118.986 161.037 118.888L161.072 118.865L168.095 113.454C168.231 113.349 168.257 113.153 168.151 113.017C168.056 112.893 167.885 112.86 167.753 112.935L167.714 112.96L161.044 118.099L158.7 110.736Z" fill="#253368"/>
<path d="M159.005 177.582C158.878 177.563 158.759 177.651 158.74 177.778L158.679 178.225L158.665 178.339C158.609 178.787 158.553 179.294 158.501 179.85C158.264 182.388 158.183 185.006 158.352 187.454C158.746 193.166 160.408 196.791 163.781 197.25C163.909 197.268 164.027 197.178 164.044 197.05C164.062 196.922 163.972 196.804 163.844 196.787C160.774 196.369 159.199 192.933 158.818 187.422C158.651 185.003 158.732 182.408 158.967 179.893L159.012 179.433C159.042 179.135 159.074 178.853 159.105 178.59L159.157 178.178L159.202 177.847C159.221 177.72 159.133 177.601 159.005 177.582Z" fill="#597EF7"/>
<path d="M183.212 87.0144C183.163 86.8946 183.027 86.8369 182.907 86.8853L182.825 86.9215C182.777 86.9444 182.717 86.9746 182.649 87.0122C182.461 87.1157 182.274 87.2411 182.098 87.3896C181.45 87.9364 181.125 88.6448 181.325 89.5024C181.401 89.8272 181.55 90.0006 181.828 90.1661L181.948 90.2333C182.186 90.3637 182.246 90.4283 182.268 90.6307C182.31 91.0193 182.133 91.3096 181.794 91.5323C181.681 91.6063 181.558 91.6664 181.436 91.7132L181.326 91.7514C181.307 91.7573 181.292 91.7616 181.281 91.7643C181.155 91.7949 181.078 91.9215 181.109 92.0469C181.14 92.1724 181.266 92.2492 181.392 92.2186C181.562 92.177 181.805 92.0844 182.05 91.9233C182.524 91.6126 182.796 91.1654 182.732 90.5802C182.693 90.2182 182.552 90.0433 182.241 89.862L182.126 89.7978C181.906 89.6767 181.827 89.5948 181.781 89.3964C181.626 88.7321 181.874 88.1903 182.399 87.747C182.55 87.6197 182.712 87.5112 182.875 87.4217C182.971 87.3687 183.044 87.3344 183.083 87.3188C183.203 87.2704 183.26 87.1341 183.212 87.0144Z" fill="#DD936F"/>
<path fill-rule="evenodd" clip-rule="evenodd" d="M101.062 107.864C101.062 107.864 94.3433 87.8377 86.7369 82.9771C84.4725 83.0607 86.5958 86.0435 88.1719 88.4843C88.9778 89.7324 89.5095 91.3091 89.5095 91.3091C89.5095 91.3091 86.4038 90.9845 86.9995 93.6206C84.511 93.5004 85.4117 96.2854 85.4117 96.2854C85.4117 96.2854 83.4987 96.2893 84.1139 98.8764C84.5365 100.655 86.9329 102.754 87.4821 104.625C89.6003 111.841 93.0795 112.24 94.4766 112.462C98.0127 113.021 100.184 111.675 101.062 107.864Z" fill="#FFC999"/>
<path d="M96.6967 98.821L93.9737 92.9243L93.9058 92.669C93.3033 90.5054 92.3485 89.6198 91.5308 90.4008C90.8275 91.0726 90.7032 92.7872 91.3331 94.3457C92.5871 97.4479 92.7135 98.8835 92.2627 100.576L92.1138 101.118C92.03 101.438 91.9815 101.696 91.9614 101.969C91.8747 103.14 91.9319 104.231 92.2579 105.283C92.7342 106.821 93.7193 107.904 95.3203 108.341C95.4449 108.375 95.5734 108.302 95.6074 108.177C95.6415 108.053 95.5681 107.924 95.4435 107.89C92.91 107.198 92.2105 104.941 92.4277 102.003C92.443 101.797 92.4771 101.598 92.5352 101.359L92.5993 101.113C92.6198 101.038 92.6454 100.946 92.6836 100.81L92.7433 100.586C93.1862 98.839 93.0312 97.2987 91.7667 94.1705C91.2014 92.7719 91.3112 91.2573 91.8538 90.739C92.2915 90.3209 92.938 90.9235 93.4638 92.814L93.5347 93.0798L96.272 99.0168C96.3261 99.1341 96.465 99.1853 96.5823 99.1312C96.6865 99.0832 96.7386 98.9681 96.7109 98.8608L96.6967 98.821Z" fill="#DD936F"/>
<path d="M86.896 93.4106C86.7801 93.4674 86.7321 93.6075 86.7889 93.7234L86.8776 93.8998C86.9486 94.0388 87.0296 94.1935 87.1192 94.3601C87.3755 94.8363 87.6502 95.3125 87.933 95.7578C88.2357 96.2346 88.5302 96.6479 88.8112 96.9798C89.3842 97.6568 89.8848 97.9883 90.3435 97.8479C91.3739 97.5323 91.6902 96.7737 91.4322 95.7878C91.3344 95.4145 91.1591 95.0224 90.9285 94.6243C90.8026 94.407 90.668 94.2014 90.5333 94.0135L90.4256 93.867C90.3948 93.8263 90.3695 93.794 90.3506 93.7709C90.2691 93.6707 90.1219 93.6555 90.0217 93.737C89.9215 93.8185 89.9064 93.9658 89.9878 94.066L90.0839 94.1909C90.1049 94.2191 90.1281 94.2509 90.1532 94.2859C90.2796 94.4622 90.4061 94.6554 90.5239 94.8587C90.7351 95.2234 90.8941 95.5789 90.9798 95.9062C91.1794 96.669 90.972 97.1663 90.2066 97.4007C89.998 97.4646 89.6252 97.2177 89.1681 96.6777C88.9027 96.3641 88.62 95.9673 88.3278 95.5071C88.0516 95.0723 87.7823 94.6054 87.531 94.1385L87.4056 93.9026L87.2089 93.5177C87.1521 93.4018 87.012 93.3538 86.896 93.4106Z" fill="#DD936F"/>
<path d="M85.7493 96.3454C85.7079 96.2231 85.5751 96.1575 85.4528 96.1989C85.3305 96.2404 85.2649 96.3731 85.3063 96.4954L85.3591 96.6417L85.4285 96.8215C85.4535 96.8844 85.4804 96.95 85.509 97.0181C85.6728 97.4071 85.8623 97.7963 86.0758 98.1608C86.7389 99.2931 87.4876 99.9618 88.3417 99.8944C89.1818 99.828 89.5741 99.2785 89.5966 98.4689C89.6048 98.1742 89.5642 97.8636 89.4918 97.5556C89.4522 97.3874 89.4123 97.2565 89.3847 97.1791C89.3412 97.0575 89.2074 96.9941 89.0858 97.0375C88.9642 97.081 88.9008 97.2148 88.9443 97.3364L88.9702 97.4153C88.9897 97.4787 89.0131 97.5629 89.0365 97.6627C89.1005 97.9345 89.1361 98.2068 89.1292 98.4559C89.1127 99.0493 88.8743 99.3832 88.3048 99.4282C87.6884 99.4769 87.0594 98.915 86.4793 97.9245C86.2771 97.5793 86.0964 97.2081 85.94 96.8366L85.8632 96.649L85.7672 96.3963C85.7592 96.374 85.7532 96.357 85.7493 96.3454Z" fill="#DD936F"/>
<path d="M83.9914 98.2646C83.8659 98.2953 83.7892 98.4219 83.8199 98.5473L83.8557 98.6811L83.9215 98.9027C83.9337 98.9419 83.9466 98.9822 83.9602 99.0234C84.0764 99.3774 84.2163 99.7315 84.3808 100.064C84.9906 101.295 85.7822 101.936 86.7648 101.56C87.4608 101.293 87.7337 100.793 87.6286 100.177C87.5771 99.8748 87.4394 99.5631 87.2427 99.2505C87.1566 99.1136 87.0647 98.9855 86.9726 98.8694L86.8861 98.7638C86.8702 98.7452 86.8568 98.73 86.8461 98.7183C86.7591 98.6228 86.6112 98.6159 86.5158 98.7029C86.4203 98.7899 86.4134 98.9378 86.5004 99.0332L86.5536 99.095C86.569 99.1136 86.5866 99.1353 86.6061 99.1599C86.6882 99.2634 86.7705 99.3779 86.8469 99.4995C87.0137 99.7646 87.1281 100.024 87.1676 100.255C87.2358 100.655 87.0819 100.937 86.5974 101.123C85.9165 101.384 85.3153 100.897 84.7998 99.8561C84.6462 99.5459 84.5142 99.2118 84.4045 98.8775C84.3789 98.7995 84.3557 98.7252 84.335 98.6556L84.2741 98.4361C84.2468 98.3246 84.1438 98.2515 84.0331 98.2582L83.9914 98.2646Z" fill="#DD936F"/>
<path d="M121.004 132.394C120.857 132.483 120.81 132.675 120.899 132.822L121.253 133.394L121.585 133.924C121.857 134.353 122.153 134.815 122.471 135.302C123.683 137.161 124.963 139.02 126.254 140.756C127.19 142.013 128.097 143.159 128.965 144.169C130.619 146.094 132.084 147.472 133.32 148.199C133.407 148.249 133.511 148.255 133.602 148.216L133.645 148.193L143.853 141.726C143.998 141.633 144.041 141.441 143.949 141.295C143.865 141.163 143.698 141.115 143.559 141.177L143.519 141.199L133.475 147.562L133.392 147.51C132.317 146.817 131.039 145.604 129.604 143.955L129.438 143.762C128.581 142.764 127.682 141.63 126.755 140.383C125.472 138.659 124.199 136.81 122.993 134.962L122.684 134.485C122.433 134.096 122.197 133.726 121.98 133.38L121.654 132.859L121.433 132.499C121.344 132.352 121.152 132.305 121.004 132.394Z" fill="#253368"/>
<path d="M116.676 133.507C116.616 133.393 116.475 133.349 116.36 133.409C116.259 133.462 116.213 133.58 116.246 133.685L116.262 133.724L121.747 144.162C121.807 144.277 121.948 144.321 122.062 144.26C122.164 144.207 122.21 144.089 122.177 143.984L122.161 143.945L116.676 133.507Z" fill="#DD936F"/>
<path fill-rule="evenodd" clip-rule="evenodd" d="M206.761 168.641C210.854 166.936 212.903 162.332 211.432 158.15L198.101 120.266C196.14 114.695 189.9 111.916 184.447 114.188C179.059 116.433 176.618 122.707 179.073 128.003L195.962 164.44C197.85 168.513 202.617 170.367 206.761 168.641Z" fill="#FFC999"/>
<path fill-rule="evenodd" clip-rule="evenodd" d="M206.209 143.077L197.857 119.04C195.462 113.817 186.656 111.744 181.475 114.232C176.295 116.72 174.162 122.973 176.742 128.108L188.529 151.569C188.529 151.569 201.759 148.487 206.209 143.077Z" fill="#597EF7"/>
<path d="M182.223 133.862C182.155 133.703 181.972 133.629 181.814 133.697C181.67 133.758 181.596 133.915 181.634 134.062L181.649 134.106L189.005 151.392C189.068 151.54 189.234 151.616 189.387 151.567L190.037 151.352L190.637 151.147C191.124 150.98 191.648 150.795 192.201 150.595C194.31 149.832 196.418 148.999 198.388 148.125L198.956 147.869C201.948 146.509 204.294 145.178 205.774 143.913C206.019 143.704 206.239 143.497 206.435 143.293C206.554 143.168 206.549 142.971 206.424 142.852C206.3 142.733 206.102 142.738 205.983 142.862C205.803 143.051 205.598 143.243 205.369 143.439C203.854 144.734 201.348 146.128 198.135 147.555C196.18 148.423 194.085 149.25 191.989 150.008L191.449 150.202C191.007 150.359 190.588 150.505 190.195 150.639L189.467 150.884L182.223 133.862Z" fill="#253368"/>
<path fill-rule="evenodd" clip-rule="evenodd" d="M155.414 164.106C155.655 166.539 157.676 168.41 160.121 168.463L203.104 169.39C208.04 169.497 211.99 165.321 211.611 160.399C211.241 155.588 206.881 152.091 202.104 152.773L159.542 158.845C156.979 159.211 155.16 161.53 155.414 164.106Z" fill="#FFC999"/>
<path fill-rule="evenodd" clip-rule="evenodd" d="M158.933 175.159L149.482 145.597C149.326 145.11 148.877 144.776 148.365 144.77L121.865 144.411C121.042 144.4 120.457 145.208 120.724 145.987L130.589 174.763C130.748 175.226 131.174 175.544 131.662 175.566L157.747 176.71C158.575 176.746 159.185 175.948 158.933 175.159Z" fill="#4E5C93"/>
<path fill-rule="evenodd" clip-rule="evenodd" d="M157.536 174.798L148.25 145.751C148.061 145.162 147.517 144.758 146.897 144.75L120.07 144.386C119.494 144.379 119.085 144.944 119.272 145.488L129.274 174.663C129.45 175.176 129.92 175.529 130.462 175.552L156.1 176.677C157.102 176.721 157.841 175.753 157.536 174.798Z" fill="#253368"/>
<path fill-rule="evenodd" clip-rule="evenodd" d="M144.617 147.549C144.318 147.882 144.425 148.468 144.858 148.858C145.291 149.248 145.886 149.293 146.186 148.96C146.486 148.626 146.378 148.039 145.945 147.65C145.512 147.26 144.917 147.215 144.617 147.549Z" fill="#ADC6FF"/>
<path fill-rule="evenodd" clip-rule="evenodd" d="M144.974 147.898C144.817 148.071 144.874 148.375 145.098 148.578C145.324 148.779 145.632 148.803 145.788 148.63C145.944 148.457 145.887 148.152 145.663 147.95C145.438 147.748 145.129 147.725 144.974 147.898Z" fill="#E4EBF7"/>
<path fill-rule="evenodd" clip-rule="evenodd" d="M147.136 169.601C145.613 169.453 144.813 168.816 144.957 167.548C143.126 166.972 143.33 165.421 143.33 165.421C143.33 165.421 139.805 165.366 139.212 163.86C138.981 163.275 139.429 162.649 140.056 162.607C147.608 162.095 152.993 158.093 152.993 158.093C152.993 158.093 150.024 153.733 150.338 151.721C150.431 151.126 151.209 150.934 151.573 151.414C154.686 155.523 160.93 158.745 160.93 158.745C160.93 158.745 168.424 165.767 160.295 168.951C160.295 168.951 154.097 171.42 149.782 171.107C147.739 170.96 147.136 169.601 147.136 169.601Z" fill="#FFC999"/>
<path d="M148.885 164.082C148.822 163.969 148.679 163.929 148.567 163.992C148.026 164.294 147.394 164.54 146.689 164.735C145.849 164.967 144.947 165.115 144.039 165.196L143.763 165.218C143.407 165.245 143.102 165.257 142.865 165.26L142.689 165.26C142.56 165.259 142.454 165.362 142.452 165.491C142.451 165.607 142.534 165.705 142.645 165.724L142.683 165.728L142.779 165.728C143.095 165.727 143.543 165.71 144.08 165.662C145.014 165.579 145.943 165.426 146.813 165.186C147.552 164.982 148.219 164.722 148.795 164.4C148.908 164.337 148.948 164.194 148.885 164.082Z" fill="#DD936F"/>
<path d="M149.595 166.403C149.539 166.286 149.399 166.238 149.283 166.294C149.213 166.328 149.143 166.36 149.072 166.392C148.176 166.797 147.213 167.056 146.245 167.199C145.648 167.287 145.17 167.315 144.872 167.313C144.739 167.311 144.633 167.414 144.631 167.544C144.63 167.66 144.713 167.757 144.824 167.777L144.862 167.781H144.946L145.119 167.777C145.427 167.766 145.835 167.732 146.314 167.661C147.321 167.513 148.325 167.243 149.265 166.819C149.339 166.785 149.413 166.75 149.487 166.715C149.603 166.659 149.651 166.519 149.595 166.403Z" fill="#DD936F"/>
<path d="M150.94 168.996C150.883 168.88 150.743 168.831 150.627 168.887C150.379 169.007 149.791 169.12 148.993 169.212C148.584 169.259 148.146 169.298 147.708 169.33L147.124 169.367C146.995 169.374 146.896 169.483 146.903 169.612C146.909 169.741 147.019 169.841 147.148 169.834L147.627 169.804L147.741 169.796C148.186 169.764 148.631 169.724 149.046 169.676L149.338 169.641C150.041 169.55 150.554 169.442 150.831 169.308C150.947 169.252 150.996 169.112 150.94 168.996Z" fill="#DD936F"/>
<path d="M202.072 152.541L160.572 158.21C160.444 158.227 160.355 158.345 160.372 158.473C160.388 158.588 160.485 158.672 160.597 158.675L160.635 158.673L202.136 153.004C202.264 152.987 202.353 152.869 202.336 152.741C202.32 152.626 202.223 152.541 202.11 152.539L202.072 152.541Z" fill="#DD936F"/>
</g>
<path d="M197.574 85.4595C197.574 87.8056 199.476 89.7075 201.822 89.7075C204.168 89.7075 206.07 87.8056 206.07 85.4595C206.07 83.1133 204.168 81.2114 201.822 81.2114C199.476 81.2114 197.574 83.1133 197.574 85.4595Z" fill="#597EF7"/>
<path d="M189.814 102.225C189.814 103.601 190.93 104.717 192.306 104.717C193.683 104.717 194.798 103.601 194.798 102.225C194.798 100.848 193.683 99.7324 192.306 99.7324C190.93 99.7324 189.814 100.848 189.814 102.225Z" fill="#597EF7"/>
<path d="M192.805 183.686L192.805 183.346C192.805 180.718 194.935 178.588 197.563 178.588C200.19 178.588 202.32 180.718 202.32 183.346V183.686C202.32 186.313 200.19 188.443 197.563 188.443C194.935 188.443 192.805 186.313 192.805 183.686Z" fill="#597EF7"/>
</g>
<defs>
<clipPath id="clip0_331_9534">
<rect width="261" height="261" fill="white"/>
</clipPath>
<clipPath id="clip1_331_9534">
<rect x="69.0562" y="37.3374" width="191.944" height="164.575" rx="82.2875" fill="white"/>
</clipPath>
</defs>
</svg>