<svg width="1336" height="816" viewBox="0 0 1336 816" fill="none" xmlns="http://www.w3.org/2000/svg">
<g clip-path="url(#clip0_11452_10119)">
<path d="M352.08 215.731H296.679C294.782 215.731 293.244 217.269 293.244 219.166V227.662C293.244 229.559 294.782 231.097 296.679 231.097H352.08C353.977 231.097 355.515 229.559 355.515 227.662V219.166C355.515 217.269 353.977 215.731 352.08 215.731Z" fill="#597EF7"/>
<path d="M352.132 244.978H296.627C294.759 244.978 293.244 246.493 293.244 248.361V256.496C293.244 258.364 294.759 259.879 296.627 259.879H352.132C354 259.879 355.515 258.364 355.515 256.496V248.361C355.515 246.493 354 244.978 352.132 244.978Z" fill="#ADC6FF"/>
<path d="M352.132 274.225H296.627C294.759 274.225 293.244 275.74 293.244 277.608V285.743C293.244 287.612 294.759 289.126 296.627 289.126H352.132C354 289.126 355.515 287.612 355.515 285.743V277.608C355.515 275.74 354 274.225 352.132 274.225Z" fill="#FF7946"/>
<path d="M352.132 303.473H296.627C294.759 303.473 293.244 304.987 293.244 306.856V314.991C293.244 316.859 294.759 318.373 296.627 318.373H352.132C354 318.373 355.515 316.859 355.515 314.991V306.856C355.515 304.987 354 303.473 352.132 303.473Z" fill="#ADC6FF"/>
<path d="M730.303 19.9984H243.151C234.783 19.9984 228 26.7815 228 35.149V384.986C228 393.353 234.783 400.136 243.151 400.136H730.303C738.67 400.136 745.453 393.353 745.453 384.986V35.149C745.453 26.7815 738.67 19.9984 730.303 19.9984Z" fill="#E4EBF7"/>
<path d="M696.948 87.4923H402.494C399.313 87.4923 396.735 90.0709 396.735 93.2518V360.708C396.735 363.888 399.313 366.467 402.494 366.467H696.948C700.129 366.467 702.707 363.888 702.707 360.708V93.2518C702.707 90.0709 700.129 87.4923 696.948 87.4923Z" fill="#597EF7"/>
<path d="M650.962 172.984H434.981V186.483H650.962V172.984Z" fill="white"/>
<path d="M542.971 220.23H434.981V233.729H542.971V220.23Z" fill="#FAAD14"/>
<path d="M635.213 125.739H527.223V139.238H635.213V125.739Z" fill="#FAAD14"/>
<path d="M632.963 312.472H434.981V325.971H632.963V312.472Z" fill="white"/>
<path d="M500.225 125.739H434.981V139.238H500.225V125.739Z" fill="white"/>
<path d="M596.967 220.23H565.469V233.729H596.967V220.23Z" fill="#E4EBF7"/>
<path d="M594.717 265.226H434.981V278.725H594.717V265.226Z" fill="#E4EBF7"/>
<path d="M241.86 2H731.333C738.988 2 745.193 8.07653 745.193 15.5723V56.0178H228V15.5723C228 8.07653 234.205 2 241.86 2Z" fill="#253368"/>
<path d="M258.141 39.3729C263.605 39.3729 268.034 35.0358 268.034 29.6857C268.034 24.3355 263.605 19.9984 258.141 19.9984C252.677 19.9984 248.248 24.3355 248.248 29.6857C248.248 35.0358 252.677 39.3729 258.141 39.3729Z" fill="#FF7946"/>
<path d="M296.387 39.3729C301.851 39.3729 306.28 35.0358 306.28 29.6857C306.28 24.3355 301.851 19.9984 296.387 19.9984C290.924 19.9984 286.495 24.3355 286.495 29.6857C286.495 35.0358 290.924 39.3729 296.387 39.3729Z" fill="#FAAD14"/>
<path d="M332.384 39.3729C337.848 39.3729 342.277 35.0358 342.277 29.6857C342.277 24.3355 337.848 19.9984 332.384 19.9984C326.921 19.9984 322.491 24.3355 322.491 29.6857C322.491 35.0358 326.921 39.3729 332.384 39.3729Z" fill="#7CB305"/>
<path d="M374.939 82.9927H274.544C271.204 82.9927 268.496 85.7002 268.496 89.0401V360.42C268.496 363.759 271.204 366.467 274.544 366.467H374.939C378.279 366.467 380.986 363.759 380.986 360.42V89.0401C380.986 85.7002 378.279 82.9927 374.939 82.9927Z" fill="white"/>
<path d="M352.08 215.731H296.679C294.782 215.731 293.244 217.269 293.244 219.166V227.662C293.244 229.559 294.782 231.097 296.679 231.097H352.08C353.977 231.097 355.515 229.559 355.515 227.662V219.166C355.515 217.269 353.977 215.731 352.08 215.731Z" fill="#597EF7"/>
<path d="M352.132 244.978H296.627C294.759 244.978 293.244 246.493 293.244 248.361V256.496C293.244 258.364 294.759 259.879 296.627 259.879H352.132C354 259.879 355.515 258.364 355.515 256.496V248.361C355.515 246.493 354 244.978 352.132 244.978Z" fill="#ADC6FF"/>
<path d="M352.132 274.225H296.627C294.759 274.225 293.244 275.74 293.244 277.608V285.743C293.244 287.612 294.759 289.126 296.627 289.126H352.132C354 289.126 355.515 287.612 355.515 285.743V277.608C355.515 275.74 354 274.225 352.132 274.225Z" fill="#FF7946"/>
<path d="M352.132 303.473H296.627C294.759 303.473 293.244 304.987 293.244 306.856V314.991C293.244 316.859 294.759 318.373 296.627 318.373H352.132C354 318.373 355.515 316.859 355.515 314.991V306.856C355.515 304.987 354 303.473 352.132 303.473Z" fill="#ADC6FF"/>
<path d="M323.604 175.355C338.967 175.355 351.42 162.76 351.42 147.223C351.42 131.686 338.967 119.091 323.604 119.091C308.242 119.091 295.788 131.686 295.788 147.223C295.788 162.76 308.242 175.355 323.604 175.355Z" fill="#FAAD14"/>
<path d="M323.604 175.355C331.622 175.359 339.23 171.778 344.388 165.57C340.324 157.767 332.321 152.882 323.6 152.882C314.88 152.882 306.876 157.767 302.812 165.57C307.973 171.779 315.585 175.361 323.604 175.355Z" fill="#253368"/>
<path d="M323.752 154.001C329.53 154.001 334.213 149.264 334.213 143.421C334.213 137.577 329.53 132.84 323.752 132.84C317.974 132.84 313.291 137.577 313.291 143.421C313.291 149.264 317.974 154.001 323.752 154.001Z" fill="#253368"/>
<path fill-rule="evenodd" clip-rule="evenodd" d="M753.761 500.143C768.084 519.063 795.399 524.02 816 511.441L1002.64 397.509C1030.1 380.752 1037.14 345.427 1018.06 320.223C999.2 295.318 962.418 290.368 937.071 309.321L762.694 439.748C743.202 454.325 739.26 480.99 753.761 500.143Z" fill="#FFC999"/>
<path fill-rule="evenodd" clip-rule="evenodd" d="M892.014 473.222L1010.57 401.478C1035.6 382.913 1035.62 335.293 1015.72 311.743C995.813 288.196 959.54 284.796 935.216 304.2L824.084 392.849C824.084 392.849 857.341 456.929 892.014 473.222Z" fill="#597EF7"/>
<path fill-rule="evenodd" clip-rule="evenodd" d="M675.079 246.53C663.094 252.443 657.628 265.965 662.345 278.028L745.276 490.053C754.804 514.4 784.266 525.595 808.727 514.16C832.632 502.983 841.666 474.857 828.427 452.819L710.47 256.479C703.367 244.656 687.767 240.269 675.079 246.53Z" fill="#FFC999"/>
<path fill-rule="evenodd" clip-rule="evenodd" d="M1081.32 294.952L1051.3 263.694L1060.77 160.822L1144.72 168.283L1144.29 270.082L1081.32 294.952Z" fill="#FFC999"/>
<path fill-rule="evenodd" clip-rule="evenodd" d="M1039.31 150.663C1039.31 150.663 1026.85 137.585 1021.16 145.977C1015.47 154.373 1023.98 185.218 1037.89 186.415C1056.49 188.013 1039.31 150.663 1039.31 150.663Z" fill="#FFC999"/>
<path fill-rule="evenodd" clip-rule="evenodd" d="M1117.95 231.333C1117.95 231.333 1089.9 251.913 1054.34 229.662C1028.74 213.645 1027.3 158.338 1033.64 117.962C1037.23 95.113 1048.71 83.1041 1072.36 77.0085C1096.02 70.913 1159.56 72.5598 1157.78 140.051C1155.79 215.226 1117.95 231.333 1117.95 231.333Z" fill="#FFC999"/>
<path d="M1074.19 129.796L1073.96 129.824C1073.34 129.954 1072.92 130.488 1072.94 131.071L1072.97 131.291L1076.23 145.4L1067.04 183.357C1066.88 184.041 1067.34 184.702 1068.03 184.839L1068.25 184.864L1085.19 185.504C1085.9 185.53 1086.5 185.002 1086.53 184.322C1086.55 183.711 1086.11 183.186 1085.5 183.068L1085.29 183.044L1069.91 182.462L1078.81 145.681C1078.84 145.562 1078.85 145.44 1078.84 145.319L1078.82 145.139L1075.49 130.761C1075.36 130.171 1074.8 129.774 1074.19 129.796Z" fill="#DD936F"/>
<path d="M1090.48 126.577C1090.21 128.371 1091.52 130.031 1093.4 130.283L1104.71 131.857L1106.16 132.054C1117.19 133.533 1123.89 134.063 1127.9 133.427C1129.77 133.129 1131.04 131.439 1130.73 129.651C1130.43 127.968 1128.85 126.799 1127.1 126.915L1126.12 127.035C1123.23 127.325 1117.94 126.935 1110.07 125.939L1104.93 125.257L1094.36 123.784C1092.48 123.532 1090.74 124.782 1090.48 126.577Z" fill="#253368"/>
<path d="M1098.87 195.358C1098.66 194.432 1097.69 193.85 1096.72 194.058L1096.08 194.179L1095.83 194.223C1095.05 194.353 1094.14 194.483 1093.09 194.606C1086.04 195.429 1077.48 195.452 1067.81 194.137C1066.82 194.003 1065.91 194.656 1065.77 195.596C1065.63 196.536 1066.31 197.406 1067.3 197.54C1077.3 198.9 1086.18 198.877 1093.53 198.018L1094.79 197.858C1095.2 197.804 1095.57 197.748 1095.93 197.693L1097.2 197.475C1097.33 197.45 1097.43 197.429 1097.51 197.413C1098.48 197.204 1099.09 196.285 1098.87 195.358Z" fill="#FF7946"/>
<path fill-rule="evenodd" clip-rule="evenodd" d="M1148.81 168.743L1163.41 143.14C1163.41 143.14 1173.32 105.91 1164.74 89.5281C1151.41 64.1076 1119.08 63.86 1100.12 56.6402C1081.15 49.417 1081.53 43.2665 1073.72 44.071C1065.91 44.872 1035.17 64.0526 1031.13 84.9074C1027.58 103.242 1031.03 150.312 1031.03 150.312C1031.03 150.312 1037.76 108.908 1042.3 98.0508C1057.68 92.4297 1112.9 93.7018 1135.73 101.135C1135.73 101.135 1137.29 115.34 1138.13 125.338C1150.21 134.108 1148.81 168.743 1148.81 168.743Z" fill="#253368"/>
<path d="M1053.9 227.303C1053.44 226.787 1052.62 226.729 1052.08 227.172C1051.54 227.614 1051.48 228.392 1051.94 228.907C1052.3 229.299 1052.97 229.949 1053.98 230.769C1055.63 232.116 1057.63 233.459 1059.98 234.709C1072.62 241.436 1089.52 242.859 1110.83 235.737C1111.5 235.512 1111.86 234.81 1111.62 234.169C1111.39 233.527 1110.65 233.189 1109.98 233.414C1089.37 240.302 1073.24 238.944 1061.23 232.559C1059.04 231.391 1057.18 230.142 1055.65 228.897L1055.04 228.38C1054.48 227.898 1054.1 227.527 1053.9 227.303Z" fill="#DD936F"/>
<path d="M1074.75 142.962C1073.33 142.866 1072.09 143.887 1071.99 145.243C1071.9 146.509 1072.82 147.619 1074.1 147.839L1074.38 147.873L1086.83 148.715C1088.25 148.811 1089.49 147.79 1089.59 146.434C1089.68 145.168 1088.76 144.058 1087.48 143.838L1087.2 143.804L1074.75 142.962Z" fill="#253368"/>
<path d="M1085.55 151.215C1082.94 150.058 1080.27 149.439 1077.64 149.687C1075.42 149.897 1073.39 150.731 1071.69 152.248C1070.64 153.176 1070.59 154.733 1071.56 155.727C1072.53 156.721 1074.16 156.775 1075.21 155.848C1076.06 155.09 1077.02 154.693 1078.15 154.587C1079.71 154.439 1081.53 154.861 1083.38 155.679C1084.36 156.115 1085.11 156.546 1085.48 156.802C1086.64 157.591 1088.25 157.333 1089.08 156.226C1089.91 155.119 1089.64 153.582 1088.48 152.793C1087.86 152.374 1086.85 151.792 1085.55 151.215Z" fill="#253368"/>
<path d="M1066.28 122.501C1060.33 120.213 1054.31 118.957 1048.54 119.307C1044.48 119.553 1040.71 120.605 1037.37 122.574C1035.75 123.524 1035.25 125.546 1036.24 127.089C1037.24 128.632 1039.36 129.112 1040.97 128.161C1043.31 126.786 1045.99 126.038 1048.98 125.857C1053.56 125.579 1058.63 126.635 1063.71 128.588C1064.99 129.081 1066.19 129.603 1067.3 130.129L1068.11 130.524C1068.88 130.911 1069.42 131.203 1069.67 131.353C1071.29 132.302 1073.41 131.821 1074.41 130.277C1075.4 128.733 1074.9 126.712 1073.28 125.762L1072.54 125.349C1071.08 124.547 1068.93 123.522 1066.28 122.501Z" fill="#253368"/>
<path d="M1074.67 206.566C1073.95 206.526 1073.34 207.044 1073.3 207.723C1073.27 208.334 1073.7 208.866 1074.31 208.995L1074.52 209.023L1084.67 209.587C1085.38 209.626 1085.99 209.108 1086.03 208.43C1086.07 207.819 1085.63 207.286 1085.03 207.157L1084.82 207.13L1074.67 206.566Z" fill="#DD936F"/>
<path d="M1133.32 146.264C1131.89 146.193 1130.68 147.235 1130.6 148.593C1130.53 149.86 1131.48 150.954 1132.76 151.152L1133.04 151.18L1153.48 152.205C1154.9 152.276 1156.11 151.233 1156.19 149.876C1156.26 148.609 1155.31 147.515 1154.03 147.317L1153.75 147.288L1133.32 146.264Z" fill="#253368"/>
<path fill-rule="evenodd" clip-rule="evenodd" d="M1131.88 144.788L1092.88 142.629C1090.16 142.478 1087.82 144.455 1087.68 147.05C1087.43 151.901 1087.24 159.689 1088.15 166.417C1089.24 174.348 1096.34 179.564 1104.68 180.396C1115.1 181.437 1124.47 181.963 1129.53 177.054C1137.23 169.573 1136.25 156.502 1136.51 149.622C1136.61 147.099 1134.53 144.933 1131.88 144.788Z" fill="white"/>
<path d="M1092.93 141.811L1131.93 143.97C1135.05 144.14 1137.49 146.685 1137.37 149.652L1137.33 151.274L1137.29 154.212C1137.2 158.577 1137.04 161.016 1136.54 164.018C1135.58 169.726 1133.59 174.28 1130.14 177.628C1125.55 182.084 1118.84 182.636 1104.59 181.211C1095.49 180.303 1088.4 174.543 1087.3 166.522C1086.52 160.807 1086.45 154.033 1086.82 147.008C1086.99 143.961 1089.73 141.633 1092.93 141.811ZM1092.83 143.448C1090.7 143.329 1088.86 144.789 1088.57 146.76L1088.54 147.092C1088.18 154.025 1088.25 160.713 1089.01 166.311C1089.99 173.53 1096.41 178.747 1104.77 179.58L1106.63 179.759C1119.06 180.894 1125.04 180.241 1128.91 176.479C1132.07 173.409 1133.93 169.159 1134.84 163.759L1135.01 162.688C1135.37 160.224 1135.5 157.928 1135.57 154.166L1135.65 149.838C1135.65 149.756 1135.65 149.674 1135.65 149.592C1135.73 147.518 1134.02 145.726 1131.83 145.607L1092.83 143.448Z" fill="#253368"/>
<path d="M1104.63 152.48C1103.69 152.427 1102.87 153.119 1102.82 154.024C1102.51 159.166 1106.14 163.632 1111.06 163.909C1115.99 164.181 1120.14 160.144 1120.45 155.001C1120.5 154.095 1119.78 153.319 1118.83 153.267C1117.88 153.215 1117.07 153.906 1117.01 154.811C1116.8 158.236 1114.18 160.792 1111.26 160.631C1108.35 160.467 1106.05 157.638 1106.25 154.213C1106.31 153.308 1105.58 152.532 1104.63 152.48Z" fill="#253368"/>
<path fill-rule="evenodd" clip-rule="evenodd" d="M1071.08 141.006L1026.92 138.562C1024.91 144.626 1025.04 168.52 1032.31 174.042C1042.15 179.677 1062.79 178.618 1066.29 173.626C1071.6 166.052 1074.3 151.193 1074.61 144.75C1074.7 142.787 1073.13 141.12 1071.08 141.006Z" fill="white"/>
<path d="M1026.97 137.743L1071.13 140.187C1073.65 140.327 1075.58 142.374 1075.47 144.787C1075.03 153.915 1071.6 167.52 1067 174.082C1063.02 179.762 1041.64 180.339 1031.86 174.745C1025.28 169.752 1023.18 147.129 1026.1 138.314C1026.22 137.957 1026.58 137.721 1026.97 137.743ZM1027.56 139.418L1027.44 139.819C1025.17 148.711 1027.27 169.167 1032.84 173.4C1041.83 178.535 1062.2 177.985 1065.57 173.17C1069.97 166.904 1073.33 153.569 1073.75 144.713C1073.82 143.196 1072.61 141.912 1071.03 141.825L1027.56 139.418Z" fill="#253368"/>
<path d="M1049.52 149.427C1048.57 149.374 1047.76 150.065 1047.7 150.97C1047.39 156.114 1051.02 160.584 1055.95 160.856C1060.87 161.129 1065.02 157.091 1065.33 151.948C1065.39 151.043 1064.66 150.267 1063.71 150.214C1062.77 150.162 1061.95 150.853 1061.9 151.759C1061.69 155.182 1059.06 157.74 1056.14 157.579C1053.23 157.418 1050.93 154.586 1051.14 151.162C1051.19 150.257 1050.47 149.48 1049.52 149.427Z" fill="#253368"/>
<path d="M1087.76 141.35C1086.34 141.307 1085.15 142.373 1085.1 143.732C1085.06 145 1086.03 146.075 1087.32 146.248L1087.6 146.271L1136.02 147.739C1137.44 147.782 1138.63 146.715 1138.68 145.356C1138.72 144.088 1137.75 143.014 1136.46 142.841L1136.18 142.818L1087.76 141.35Z" fill="#253368"/>
<path d="M1026.69 137.014C1025.26 136.916 1024.03 137.936 1023.93 139.292C1023.83 140.558 1024.76 141.669 1026.04 141.891L1026.31 141.924L1073.65 145.184C1075.08 145.282 1076.31 144.262 1076.41 142.906C1076.51 141.64 1075.58 140.529 1074.3 140.307L1074.03 140.273L1026.69 137.014Z" fill="#253368"/>
<path fill-rule="evenodd" clip-rule="evenodd" d="M1155.67 147.913C1160.76 143.093 1168.53 141.873 1173.9 147.628C1182.55 156.9 1173.72 190.661 1149.88 191.665C1140.86 190.314 1147.72 155.432 1155.67 147.913Z" fill="#FFC999"/>
<path fill-rule="evenodd" clip-rule="evenodd" d="M1180.17 570.547C1180.17 570.547 1201.54 468.435 1211.01 430.713C1220.47 392.988 1234.84 302.672 1218.5 295.91C1202.16 289.147 1163.05 274.787 1163.05 274.787C1163.05 274.787 1124.25 279.542 1089.2 286.662C1061.45 292.3 1069.33 267.447 1035.69 272.748C1021.45 274.996 976.739 281.718 954.419 293.335C945.468 297.993 946.913 326.281 945.641 353.778C941.583 441.543 964.03 576.013 964.03 576.013C964.03 576.013 950.718 589.064 966.855 605.989C974.851 613.913 1009.47 611.228 1053.79 611.331C1104.23 611.448 1163.57 617.492 1174.58 608.34C1195.26 591.15 1180.17 570.547 1180.17 570.547Z" fill="#597EF7"/>
<path fill-rule="evenodd" clip-rule="evenodd" d="M1049.97 259.56L1083.79 290.536L1043.2 317.641L1025.62 276.337L1049.97 259.56Z" fill="#597EF7"/>
<path fill-rule="evenodd" clip-rule="evenodd" d="M1142.43 1425.28L1071.34 783.239L1068.51 781.909L993.886 1426.76C993.886 1426.76 938.248 1439.06 908.846 1422.23C907.701 1297.19 938.557 891.044 951.617 705.565C953.717 675.702 963.339 635.113 965.26 623.83C1054.59 609.428 1175.6 630.197 1175.6 630.197L1180.83 645.17C1181.85 648.082 1182.47 651.11 1182.66 654.174L1238.75 1418.94C1238.75 1418.94 1183.77 1437.93 1142.43 1425.28Z" fill="#ADC6FF"/>
<path d="M1022.97 757.052C1022.33 756.754 1021.55 757.007 1021.24 757.618C1020.96 758.161 1021.14 758.803 1021.63 759.149L1021.83 759.264L1075.67 784.365C1076.31 784.663 1077.08 784.41 1077.4 783.799C1077.67 783.256 1077.49 782.614 1077 782.268L1076.8 782.153L1022.97 757.052Z" fill="#597EF7"/>
<path fill-rule="evenodd" clip-rule="evenodd" d="M1175.12 608.073C1175.12 608.073 1061.37 592.035 966.821 607.836C966.043 615.833 965.232 625.679 965.232 625.679C965.232 625.679 1046.14 630.994 1176.95 634.071C1176.59 612.367 1175.12 608.073 1175.12 608.073Z" fill="#ADC6FF"/>
<path d="M1138.27 630.998C1096.84 627.782 1054.31 626.544 1014.59 628.436C997.898 629.231 982.15 630.573 967.501 632.509C966.796 632.602 966.303 633.224 966.4 633.897C966.498 634.57 967.15 635.04 967.855 634.947C982.424 633.022 998.098 631.686 1014.72 630.894C1054.31 629.009 1096.73 630.243 1138.06 633.451L1144.62 633.979C1151.05 634.514 1157.05 635.068 1162.57 635.625L1168.76 636.272L1173.17 636.767C1173.6 636.816 1173.92 636.854 1174.13 636.881C1174.84 636.968 1175.49 636.491 1175.58 635.817C1175.67 635.143 1175.17 634.526 1174.46 634.439L1171.92 634.143C1170.14 633.941 1168.1 633.719 1165.83 633.483L1160.98 632.991C1154.08 632.31 1146.47 631.634 1138.27 630.998Z" fill="#597EF7"/>
<path d="M1138.73 603.896C1097.29 600.68 1054.76 599.442 1015.05 601.334C998.353 602.129 982.605 603.471 967.957 605.407C967.251 605.5 966.759 606.122 966.856 606.795C966.954 607.468 967.605 607.939 968.311 607.845C982.88 605.92 998.554 604.584 1015.17 603.793C1054.76 601.907 1097.19 603.141 1138.52 606.349L1142.92 606.699C1149.44 607.23 1155.54 607.782 1161.17 608.337L1168.19 609.058L1174.59 609.779C1175.29 609.866 1175.94 609.39 1176.03 608.715C1176.12 608.041 1175.62 607.424 1174.92 607.338L1172.37 607.041C1170.89 606.873 1169.23 606.691 1167.4 606.498L1161.43 605.889C1154.54 605.208 1146.93 604.533 1138.73 603.896Z" fill="#597EF7"/>
<path d="M1061.16 605.585C1060.44 605.57 1059.85 606.107 1059.83 606.786L1059.69 613.208C1059.64 615.965 1059.58 619.002 1059.53 622.291C1059.1 649.545 1059.08 678.459 1059.72 705.55L1059.88 711.713C1060.57 736.727 1061.84 757.699 1063.77 773.427C1063.85 774.102 1064.49 774.586 1065.2 774.507C1065.91 774.428 1066.42 773.816 1066.33 773.141L1066.03 770.559C1064.13 753.912 1062.92 731.782 1062.3 705.495C1061.71 680.52 1061.68 653.986 1062.02 628.638L1062.13 620.935L1062.41 606.847C1062.43 606.168 1061.87 605.603 1061.16 605.585Z" fill="#597EF7"/>
<path fill-rule="evenodd" clip-rule="evenodd" d="M1039.04 614.488C1038.99 617.548 1040.97 620.061 1043.47 620.103C1045.96 620.14 1048.03 617.689 1048.08 614.626C1048.13 611.566 1046.15 609.053 1043.65 609.012C1041.15 608.974 1039.09 611.425 1039.04 614.488Z" fill="white"/>
<path fill-rule="evenodd" clip-rule="evenodd" d="M1083.61 288.011L1114.91 327.308L1161.68 274.871L1144.55 254.443L1083.61 288.011Z" fill="#597EF7"/>
<path d="M1082.2 290.137C1081.31 289.824 1080.32 290.26 1079.99 291.11L1079.67 292.028L1079.34 293.009C1079.23 293.364 1079.11 293.748 1078.99 294.16L1078.8 294.802C1078.01 297.457 1077.15 300.721 1076.23 304.642L1075.73 306.846C1072.66 320.468 1069.59 338.477 1066.72 361.442L1065.96 367.708C1062.87 393.672 1060.22 424.172 1058.13 459.57L1057.96 462.531C1054.84 516.486 1055.57 562.773 1058.28 597.372C1058.35 598.276 1059.18 598.954 1060.12 598.887C1061.07 598.819 1061.78 598.031 1061.71 597.127L1061.44 593.582C1059.01 560.125 1058.41 516.264 1061.24 465.441L1061.4 462.712C1063.51 426.112 1066.21 394.7 1069.38 368.08L1069.89 363.805C1072.82 339.991 1075.96 321.441 1079.09 307.537L1079.59 305.363C1080.41 301.849 1081.19 298.879 1081.9 296.416L1082.11 295.693C1082.36 294.839 1082.59 294.104 1082.79 293.481L1083.14 292.453C1083.18 292.36 1083.2 292.291 1083.22 292.245C1083.55 291.394 1083.09 290.45 1082.2 290.137Z" fill="#253368"/>
<path d="M945.392 347.357C944.553 346.686 943.371 346.806 942.687 347.599C942.396 347.936 942.24 348.315 942.116 348.807C941.974 349.37 941.871 350.157 941.796 351.19L941.761 351.727C941.635 353.897 941.614 357.052 941.7 361.093L941.747 363.02C942.03 373.266 942.899 387.946 944.298 405.573L944.82 411.999C948.313 453.997 954.143 506.131 961.971 562.773L962.808 568.768L962.488 569.551L962.212 570.261C961.64 571.753 961.07 573.402 960.537 575.165C959.244 579.447 958.381 583.7 958.15 587.703C957.763 594.39 959.169 599.834 962.9 603.508C963.561 604.16 964.65 604.176 965.333 603.545C966.016 602.915 966.033 601.875 965.372 601.224C962.431 598.327 961.247 593.745 961.586 587.884C961.801 584.158 962.617 580.137 963.844 576.074C964.252 574.725 964.682 573.446 965.117 572.26L965.703 570.723C965.902 570.22 966.058 569.848 966.157 569.625C966.276 569.355 966.318 569.06 966.277 568.769L964.943 559.146C957.197 502.732 951.456 450.933 948.056 409.378L947.596 403.635C946.367 387.931 945.571 374.673 945.249 364.96L945.143 361.154C945.062 357.416 945.073 354.457 945.173 352.374L945.197 351.909C945.237 351.238 945.286 350.682 945.342 350.255L945.403 349.86L945.429 349.844L945.607 349.669C946.217 348.974 946.121 347.939 945.392 347.357Z" fill="#253368"/>
<path d="M1033.09 340.249L1035.45 340.443C1036.22 340.509 1036.96 340.576 1037.67 340.643L1041.16 340.998L1042.23 341.12C1043.17 341.236 1043.86 342.031 1043.8 342.937L1039.63 404.181C1039.59 404.762 1039.25 405.285 1038.71 405.57L1003.94 424.131C1003.34 424.45 1002.61 424.419 1002.04 424.051L975.182 406.555C974.691 406.235 974.397 405.706 974.396 405.139L974.421 393.993L974.462 386.884C974.546 374.569 974.705 360.862 974.955 346.005C974.966 345.343 975.375 344.746 976.006 344.47C982.788 341.505 992.585 339.945 1004.66 339.507C1013.78 339.175 1023.53 339.502 1033.09 340.249ZM1003.51 342.994C993.313 343.44 984.919 344.739 978.949 347.008L978.541 347.167L978.314 362.264C978.211 370.11 978.135 377.565 978.082 384.583L978.009 397.865L978 404.226L1003.15 420.609L1036.1 403.025L1040.09 344.341L1039.35 344.265C1037.4 344.064 1035.2 343.863 1032.79 343.675C1023.37 342.939 1013.75 342.617 1004.79 342.942L1003.51 342.994Z" fill="#253368"/>
<path fill-rule="evenodd" clip-rule="evenodd" d="M1081.17 317.548C1081.12 320.611 1083.25 323.124 1085.92 323.166C1088.59 323.207 1090.8 320.759 1090.86 317.696C1090.91 314.636 1088.78 312.119 1086.11 312.078C1083.43 312.037 1081.22 314.485 1081.17 317.548Z" fill="white"/>
<path fill-rule="evenodd" clip-rule="evenodd" d="M1068.54 434.725C1068.49 437.788 1070.62 440.302 1073.29 440.343C1075.97 440.384 1078.17 437.936 1078.23 434.873C1078.28 431.813 1076.15 429.297 1073.48 429.255C1070.8 429.214 1068.59 431.665 1068.54 434.725Z" fill="white"/>
<path fill-rule="evenodd" clip-rule="evenodd" d="M1073.44 373.805C1073.39 376.865 1075.52 379.382 1078.19 379.423C1080.87 379.464 1083.07 377.016 1083.13 373.953C1083.18 370.893 1081.05 368.376 1078.38 368.335C1075.7 368.294 1073.49 370.742 1073.44 373.805Z" fill="white"/>
<path fill-rule="evenodd" clip-rule="evenodd" d="M1066.61 491.995C1066.56 495.055 1068.68 497.571 1071.36 497.612C1074.03 497.654 1076.24 495.206 1076.29 492.143C1076.35 489.083 1074.22 486.566 1071.55 486.525C1068.87 486.484 1066.66 488.932 1066.61 491.995Z" fill="white"/>
<path fill-rule="evenodd" clip-rule="evenodd" d="M1066.3 567.773C1066.25 570.836 1068.38 573.349 1071.05 573.39C1073.73 573.432 1075.93 570.984 1075.99 567.92C1076.04 564.861 1073.91 562.344 1071.24 562.303C1068.56 562.262 1066.35 564.709 1066.3 567.773Z" fill="white"/>
<path d="M1162.19 275.222C1161.53 274.689 1160.57 274.711 1159.94 275.239L1159.76 275.413L1115.87 324.792L1084.54 290.016C1083.97 289.391 1083.02 289.269 1082.31 289.696L1082.11 289.841C1081.45 290.378 1081.33 291.284 1081.77 291.96L1081.93 292.156L1114.57 328.392C1115.21 329.094 1116.3 329.149 1117.01 328.56L1117.19 328.384L1162.39 277.536C1163 276.845 1162.91 275.809 1162.19 275.222Z" fill="#253368"/>
<path d="M1031.17 277.445C1030.88 276.581 1029.91 276.104 1029.01 276.379C1028.18 276.631 1027.69 277.427 1027.83 278.224L1027.89 278.441L1041.57 319.428C1041.9 320.441 1043.13 320.868 1044.06 320.355L1044.25 320.231L1083 291.751C1083.75 291.197 1083.89 290.167 1083.31 289.448C1082.79 288.795 1081.84 288.626 1081.11 289.016L1080.9 289.15L1044.1 316.2L1031.17 277.445Z" fill="#253368"/>
<path d="M1032.85 629.307C1032.15 629.206 1031.49 629.67 1031.39 630.342L1031.05 632.691L1030.98 633.293C1030.67 635.651 1030.36 638.319 1030.07 641.245C1028.76 654.605 1028.32 668.388 1029.25 681.275C1031.42 711.342 1040.59 730.419 1059.2 732.837C1059.91 732.929 1060.56 732.458 1060.65 731.784C1060.75 731.11 1060.26 730.49 1059.55 730.398C1042.61 728.197 1033.92 710.111 1031.82 681.106C1030.9 668.369 1031.34 654.713 1032.64 641.474L1032.89 639.053C1033.06 637.482 1033.23 636 1033.4 634.616L1033.69 632.447L1033.94 630.706C1034.04 630.033 1033.56 629.407 1032.85 629.307Z" fill="#597EF7"/>
<path d="M1166.41 152.577C1166.14 151.947 1165.39 151.642 1164.73 151.897L1164.27 152.088C1164.01 152.209 1163.68 152.367 1163.3 152.565C1162.27 153.11 1161.23 153.77 1160.26 154.552C1156.69 157.43 1154.9 161.159 1156 165.673C1156.41 167.383 1157.24 168.296 1158.77 169.167L1159.43 169.521C1160.75 170.207 1161.08 170.547 1161.2 171.612C1161.43 173.658 1160.45 175.186 1158.58 176.358C1157.96 176.748 1157.28 177.064 1156.61 177.31L1156 177.511C1155.9 177.543 1155.81 177.565 1155.75 177.579C1155.06 177.741 1154.64 178.407 1154.8 179.067C1154.97 179.728 1155.67 180.132 1156.36 179.971C1157.3 179.752 1158.64 179.264 1160 178.416C1162.61 176.781 1164.11 174.427 1163.76 171.347C1163.54 169.441 1162.76 168.52 1161.05 167.566L1160.41 167.228C1159.2 166.591 1158.77 166.159 1158.51 165.115C1157.66 161.619 1159.03 158.767 1161.92 156.433C1162.76 155.763 1163.65 155.192 1164.55 154.721C1165.08 154.442 1165.48 154.261 1165.69 154.179C1166.36 153.924 1166.67 153.207 1166.41 152.577Z" fill="#DD936F"/>
<path d="M1009.95 778.037C1009.24 777.994 1008.62 778.509 1008.58 779.187C1008.54 779.798 1008.97 780.333 1009.58 780.465L1009.78 780.494L1052.36 783.083C1053.07 783.126 1053.68 782.611 1053.73 781.932C1053.77 781.322 1053.34 780.787 1052.73 780.655L1052.52 780.626L1009.95 778.037Z" fill="#597EF7"/>
<path fill-rule="evenodd" clip-rule="evenodd" d="M713.161 262.326C713.161 262.326 676.095 156.91 634.129 131.325C621.635 131.765 633.35 147.466 642.046 160.314C646.492 166.884 649.426 175.183 649.426 175.183C649.426 175.183 632.291 173.475 635.577 187.35C621.848 186.718 626.817 201.377 626.817 201.377C626.817 201.377 616.263 201.398 619.657 215.016C621.989 224.377 635.21 235.427 638.24 245.277C649.927 283.26 669.123 285.361 676.83 286.526C696.34 289.469 708.318 282.383 713.161 262.326Z" fill="#FFC999"/>
<path d="M689.082 214.723L674.058 183.684L673.684 182.34C670.359 170.951 665.092 166.29 660.58 170.401C656.7 173.937 656.014 182.962 659.49 191.166C666.408 207.495 667.106 215.052 664.618 223.963L663.797 226.813C663.334 228.501 663.067 229.856 662.956 231.293C662.478 237.459 662.793 243.201 664.592 248.74C667.22 256.833 672.655 262.535 681.488 264.836C682.175 265.015 682.884 264.629 683.072 263.973C683.26 263.317 682.855 262.641 682.167 262.462C668.19 258.82 664.33 246.936 665.529 231.474C665.613 230.388 665.801 229.339 666.122 228.082L666.475 226.786C666.589 226.391 666.73 225.909 666.941 225.195L667.27 224.014C669.713 214.818 668.858 206.71 661.882 190.244C658.763 182.882 659.369 174.909 662.362 172.181C664.777 169.981 668.344 173.152 671.245 183.104L671.636 184.503L686.739 215.754C687.037 216.371 687.803 216.641 688.45 216.356C689.026 216.103 689.313 215.498 689.16 214.933L689.082 214.723Z" fill="#DD936F"/>
<path d="M635.009 186.247C634.369 186.546 634.105 187.283 634.418 187.893L634.907 188.822C635.299 189.553 635.746 190.368 636.24 191.245C637.654 193.751 639.17 196.258 640.73 198.602C642.4 201.111 644.025 203.287 645.575 205.034C648.737 208.598 651.499 210.343 654.03 209.604C659.714 207.942 661.459 203.949 660.036 198.76C659.497 196.794 658.529 194.731 657.257 192.635C656.563 191.491 655.82 190.409 655.077 189.42L654.483 188.649C654.313 188.435 654.173 188.265 654.069 188.143C653.619 187.616 652.807 187.536 652.254 187.965C651.701 188.394 651.618 189.169 652.067 189.696L652.597 190.354C652.713 190.502 652.841 190.67 652.98 190.854C653.677 191.782 654.375 192.799 655.025 193.869C656.19 195.789 657.067 197.66 657.54 199.383C658.641 203.398 657.497 206.016 653.274 207.25C652.123 207.586 650.066 206.287 647.544 203.444C646.08 201.793 644.52 199.705 642.908 197.282C641.385 194.993 639.899 192.536 638.512 190.078L637.82 188.836L636.735 186.811C636.422 186.2 635.649 185.948 635.009 186.247Z" fill="#DD936F"/>
<path d="M628.68 201.693C628.451 201.049 627.719 200.704 627.044 200.922C626.369 201.14 626.008 201.838 626.236 202.482L626.527 203.252L626.91 204.199C627.048 204.53 627.196 204.875 627.354 205.234C628.258 207.281 629.303 209.33 630.481 211.249C634.14 217.209 638.27 220.729 642.983 220.374C647.618 220.024 649.782 217.132 649.907 212.87C649.952 211.319 649.728 209.684 649.328 208.063C649.11 207.178 648.89 206.489 648.737 206.081C648.498 205.441 647.759 205.107 647.088 205.336C646.417 205.564 646.068 206.269 646.307 206.909L646.451 207.324C646.558 207.658 646.687 208.101 646.817 208.626C647.169 210.057 647.366 211.491 647.328 212.802C647.237 215.926 645.921 217.683 642.779 217.92C639.379 218.176 635.908 215.219 632.708 210.005C631.592 208.188 630.595 206.234 629.732 204.278L629.309 203.291L628.779 201.96C628.734 201.843 628.702 201.754 628.68 201.693Z" fill="#DD936F"/>
<path d="M618.983 211.797C618.291 211.959 617.868 212.625 618.037 213.285L618.235 213.989L618.598 215.156C618.665 215.362 618.737 215.574 618.811 215.791C619.452 217.655 620.225 219.519 621.132 221.267C624.497 227.749 628.864 231.125 634.285 229.142C638.125 227.737 639.631 225.108 639.051 221.862C638.767 220.273 638.007 218.632 636.922 216.987C636.447 216.266 635.94 215.592 635.432 214.98L634.954 214.425C634.867 214.327 634.793 214.247 634.734 214.185C634.254 213.683 633.438 213.646 632.911 214.104C632.385 214.562 632.347 215.34 632.826 215.843L633.12 216.168C633.205 216.266 633.302 216.38 633.41 216.51C633.863 217.055 634.316 217.658 634.738 218.297C635.658 219.693 636.289 221.056 636.507 222.276C636.884 224.382 636.035 225.865 633.362 226.843C629.605 228.217 626.288 225.654 623.444 220.174C622.596 218.542 621.868 216.783 621.263 215.024C621.121 214.613 620.994 214.222 620.879 213.855L620.543 212.7C620.393 212.113 619.824 211.728 619.214 211.764L618.983 211.797Z" fill="#DD936F"/>
<path d="M823.194 391.445C822.381 391.915 822.121 392.924 822.614 393.7L824.562 396.711L826.397 399.498C827.895 401.757 829.529 404.187 831.284 406.755C837.97 416.539 845.034 426.323 852.159 435.459C857.32 442.078 862.326 448.111 867.115 453.427C876.241 463.558 884.32 470.814 891.144 474.638C891.62 474.905 892.197 474.935 892.695 474.73L892.936 474.609L949.252 440.566C950.055 440.081 950.293 439.066 949.785 438.301C949.322 437.604 948.402 437.353 947.635 437.678L947.41 437.793L891.999 471.289L891.538 471.013C885.606 467.364 878.554 460.98 870.642 452.299L869.725 451.287C864.993 446.034 860.036 440.06 854.92 433.499C847.841 424.423 840.817 414.693 834.167 404.962L832.461 402.454C831.075 400.405 829.776 398.458 828.573 396.635L826.778 393.892L825.557 391.998C825.065 391.223 824.006 390.975 823.194 391.445Z" fill="#253368"/>
<path d="M799.311 397.305C798.98 396.703 798.2 396.472 797.569 396.788C797.009 397.069 796.755 397.688 796.938 398.245L797.027 398.45L827.286 453.392C827.617 453.994 828.397 454.225 829.028 453.909C829.589 453.628 829.843 453.009 829.659 452.452L829.57 452.247L799.311 397.305Z" fill="#DD936F"/>
<path fill-rule="evenodd" clip-rule="evenodd" d="M1296.33 582.244C1318.91 573.267 1330.22 549.036 1322.1 527.023L1248.55 327.606C1237.74 298.28 1203.3 283.654 1173.22 295.612C1143.49 307.428 1130.03 340.457 1143.57 368.332L1236.75 560.13C1247.17 581.57 1273.47 591.33 1296.33 582.244Z" fill="#FFC999"/>
<path fill-rule="evenodd" clip-rule="evenodd" d="M1293.29 447.681L1247.21 321.156C1233.99 293.659 1185.41 282.751 1156.83 295.846C1128.25 308.941 1116.48 341.857 1130.71 368.886L1195.74 492.378C1195.74 492.378 1268.73 476.155 1293.29 447.681Z" fill="#597EF7"/>
<path d="M1160.95 399.171C1160.58 398.337 1159.57 397.948 1158.69 398.303C1157.9 398.626 1157.49 399.452 1157.7 400.227L1157.78 400.457L1198.37 491.447C1198.72 492.227 1199.63 492.626 1200.48 492.367L1204.06 491.236L1207.37 490.16C1210.06 489.277 1212.95 488.305 1216 487.251C1227.64 483.235 1239.27 478.853 1250.14 474.249L1253.27 472.904C1269.78 465.742 1282.72 458.739 1290.89 452.082C1292.24 450.981 1293.45 449.892 1294.53 448.814C1295.19 448.158 1295.16 447.119 1294.47 446.493C1293.79 445.867 1292.7 445.892 1292.04 446.548C1291.05 447.542 1289.92 448.555 1288.65 449.586C1280.29 456.402 1266.47 463.737 1248.74 471.248C1237.95 475.817 1226.39 480.172 1214.83 484.164L1211.85 485.184C1209.42 486.011 1207.1 486.78 1204.94 487.486L1200.92 488.775L1160.95 399.171Z" fill="#253368"/>
<path fill-rule="evenodd" clip-rule="evenodd" d="M1013.04 558.372C1014.37 571.182 1025.52 581.028 1039.01 581.307L1276.16 586.189C1303.39 586.749 1325.18 564.77 1323.09 538.858C1321.05 513.534 1296.99 495.127 1270.64 498.716L1035.82 530.679C1021.68 532.604 1011.64 544.812 1013.04 558.372Z" fill="#FFC999"/>
<path fill-rule="evenodd" clip-rule="evenodd" d="M1032.45 616.553L980.312 460.946C979.45 458.378 976.971 456.625 974.146 456.59L827.94 454.702C823.4 454.644 820.171 458.897 821.645 462.995L876.073 614.47C876.948 616.907 879.298 618.581 881.993 618.695L1025.91 624.718C1030.48 624.907 1033.84 620.706 1032.45 616.553Z" fill="#4E5C93"/>
<path fill-rule="evenodd" clip-rule="evenodd" d="M1024.74 614.655L973.513 461.758C972.471 458.653 969.466 456.528 966.046 456.484L818.035 454.572C814.861 454.534 812.601 457.508 813.632 460.372L868.816 613.944C869.786 616.642 872.384 618.499 875.371 618.623L1016.82 624.543C1022.35 624.773 1026.43 619.682 1024.74 614.655Z" fill="#253368"/>
<path fill-rule="evenodd" clip-rule="evenodd" d="M953.471 471.218C951.817 472.975 952.411 476.059 954.8 478.111C957.189 480.161 960.469 480.398 962.126 478.644C963.78 476.888 963.186 473.8 960.797 471.751C958.407 469.699 955.125 469.462 953.471 471.218Z" fill="#ADC6FF"/>
<path fill-rule="evenodd" clip-rule="evenodd" d="M955.436 473.055C954.575 473.966 954.885 475.568 956.124 476.634C957.367 477.696 959.068 477.82 959.93 476.909C960.787 475.998 960.477 474.396 959.238 473.33C957.998 472.268 956.294 472.144 955.436 473.055Z" fill="#E4EBF7"/>
<path fill-rule="evenodd" clip-rule="evenodd" d="M967.367 587.294C958.968 586.517 954.55 583.165 955.346 576.488C945.242 573.456 946.37 565.291 946.37 565.291C946.37 565.291 926.922 565.005 923.65 557.077C922.378 553.997 924.846 550.703 928.305 550.48C969.973 547.784 999.684 526.72 999.684 526.72C999.684 526.72 983.302 503.771 985.035 493.179C985.547 490.047 989.839 489.036 991.846 491.563C1009.02 513.191 1043.47 530.151 1043.47 530.151C1043.47 530.151 1084.82 567.113 1039.97 583.873C1039.97 583.873 1005.77 596.872 981.969 595.225C970.697 594.448 967.367 587.294 967.367 587.294Z" fill="#FFC999"/>
<path d="M977.014 558.244C976.666 557.65 975.88 557.438 975.259 557.77C972.275 559.361 968.788 560.658 964.899 561.683C960.264 562.904 955.287 563.685 950.279 564.109L948.756 564.228C946.794 564.366 945.112 564.431 943.801 564.446L942.833 564.448C942.12 564.439 941.535 564.983 941.525 565.662C941.517 566.274 941.977 566.788 942.589 566.891L942.798 566.91L943.329 566.911C945.073 566.906 947.544 566.812 950.507 566.561C955.659 566.124 960.786 565.32 965.586 564.056C969.662 562.982 973.338 561.615 976.518 559.919C977.14 559.587 977.362 558.837 977.014 558.244Z" fill="#DD936F"/>
<path d="M980.936 570.461C980.626 569.849 979.854 569.592 979.213 569.888C978.829 570.065 978.441 570.238 978.05 570.406C973.102 572.536 967.789 573.902 962.454 574.651C959.158 575.114 956.518 575.264 954.875 575.253C954.143 575.243 953.558 575.787 953.548 576.466C953.539 577.078 954 577.592 954.611 577.695L954.82 577.714H955.283L956.237 577.693C957.938 577.636 960.187 577.458 962.83 577.087C968.387 576.306 973.926 574.882 979.111 572.65C979.523 572.473 979.931 572.291 980.336 572.104C980.977 571.808 981.246 571.073 980.936 570.461Z" fill="#DD936F"/>
<path d="M988.351 584.111C988.041 583.499 987.27 583.243 986.628 583.539C985.256 584.172 982.016 584.763 977.61 585.248C975.357 585.496 972.94 585.702 970.521 585.869L967.302 586.065C966.59 586.099 966.043 586.678 966.079 587.357C966.115 588.035 966.721 588.558 967.433 588.523L970.076 588.367L970.707 588.324C973.159 588.155 975.612 587.945 977.905 587.693L979.514 587.506C983.396 587.026 986.223 586.46 987.752 585.755C988.393 585.459 988.662 584.723 988.351 584.111Z" fill="#DD936F"/>
<path d="M1270.47 497.499L1041.5 536.578C1040.79 536.699 1040.3 537.512 1040.39 538.394C1040.48 539.187 1041.02 539.767 1041.64 539.787L1041.85 539.772L1270.81 500.693C1271.52 500.572 1272.01 499.759 1271.92 498.877C1271.83 498.084 1271.3 497.504 1270.67 497.484L1270.47 497.499Z" fill="#DD936F"/>
<path d="M1305.52 167.078H1290.64C1281.81 167.078 1274.64 174.242 1274.64 183.078L1274.64 197.953C1274.64 206.79 1281.81 213.953 1290.64 213.953H1305.52C1314.36 213.953 1321.52 206.79 1321.52 197.953V183.078C1321.52 174.242 1314.36 167.078 1305.52 167.078Z" fill="#597EF7"/>
<path d="M1231.83 283.016C1231.83 290.61 1237.99 296.766 1245.58 296.766C1253.18 296.766 1259.33 290.61 1259.33 283.016C1259.33 275.422 1253.18 269.266 1245.58 269.266C1237.99 269.266 1231.83 275.422 1231.83 283.016Z" fill="#597EF7"/>
<path d="M1284.83 704.328H1264.33C1255.49 704.328 1248.33 711.492 1248.33 720.328L1248.33 742.703C1248.33 751.54 1255.49 758.703 1264.33 758.703H1284.83C1293.67 758.703 1300.83 751.54 1300.83 742.703V720.328C1300.83 711.492 1293.67 704.328 1284.83 704.328Z" fill="#597EF7"/>
<path d="M917.56 127.482C917.56 89.4546 886.725 58.3047 848.686 58.3047C810.648 58.3047 779.81 89.4546 779.81 127.482C779.81 142.532 787.801 161.972 800.634 176.305C813.359 190.508 816.983 214.417 816.983 233.483V240.959H880.389V233.546C880.389 214.48 884.014 190.615 896.673 176.368C909.548 161.887 917.56 140.72 917.56 127.482Z" fill="#FFE58F"/>
<path d="M906.225 127.294C906.225 95.532 880.471 69.5066 848.686 69.5066C816.901 69.5066 791.154 95.5292 791.154 127.294C791.154 139.878 797.827 156.11 808.549 168.084C819.178 179.949 827.071 199.923 827.071 215.849V222.089H870.305V215.903C870.305 199.974 878.197 180.037 888.775 168.135C899.532 156.04 906.225 138.357 906.225 127.297V127.294Z" fill="#FAAD14"/>
<path d="M866.167 275.841H831.206C829.983 275.841 828.869 275.047 828.205 273.742L823.449 261.437H873.929L869.173 273.742C868.507 275.047 867.395 275.841 866.173 275.841H866.167Z" fill="#253368"/>
<path d="M874.658 212.52H822.715C818.856 212.52 815.727 215.649 815.727 219.508V259.747C815.727 263.606 818.856 266.735 822.715 266.735H874.658C878.517 266.735 881.646 263.606 881.646 259.747V219.508C881.646 215.649 878.517 212.52 874.658 212.52Z" fill="#597EF7"/>
<path d="M852.949 227.047C853.592 227.047 854.113 227.568 854.113 228.211C854.113 228.837 853.619 229.348 852.999 229.374L852.949 229.376H815.812C815.169 229.376 814.648 228.854 814.648 228.211C814.648 227.585 815.142 227.075 815.762 227.048L815.812 227.047H852.949Z" fill="white"/>
<path d="M852.949 251.15C853.592 251.15 854.113 251.671 854.113 252.314C854.113 252.94 853.619 253.451 852.999 253.477L852.949 253.478H815.812C815.169 253.478 814.648 252.957 814.648 252.314C814.648 251.688 815.142 251.177 815.762 251.151L815.812 251.15H852.949Z" fill="white"/>
<path d="M881.433 239.097C882.076 239.097 882.597 239.618 882.597 240.261C882.597 240.887 882.103 241.398 881.483 241.424L881.433 241.425H844.296C843.653 241.425 843.132 240.904 843.132 240.261C843.132 239.635 843.626 239.125 844.246 239.098L844.296 239.097H881.433Z" fill="white"/>
<path d="M853.384 99.6789L827.421 139.226C826.024 141.37 827.527 144.007 830.044 144.007H841.674L827.374 171.017C826.308 173.201 829.058 175.228 830.743 173.501L869.632 134.432C871.616 132.398 870.207 128.925 867.4 128.925H849.813L857.171 101.404C857.746 99.0545 854.692 97.6762 853.384 99.6789Z" fill="white"/>
<path fill-rule="evenodd" clip-rule="evenodd" d="M674.671 600.023L627.914 746.909H656.182L702.94 600.023H674.671Z" fill="#597EF7"/>
<path fill-rule="evenodd" clip-rule="evenodd" d="M607.997 616.723H577.988H559.071C557.595 616.723 556.399 617.919 556.399 619.395V638.312V708.62V727.538C556.399 729.013 557.595 730.209 559.071 730.209H577.988H607.997C609.472 730.209 610.669 729.013 610.669 727.538V711.292C610.669 709.816 609.472 708.62 607.997 708.62H577.988V638.312H607.997C609.472 638.312 610.669 637.116 610.669 635.64V619.395C610.669 617.919 609.472 616.723 607.997 616.723Z" fill="#CCD7EE"/>
<path fill-rule="evenodd" clip-rule="evenodd" d="M771.783 616.723H752.866H722.857C721.381 616.723 720.185 617.919 720.185 619.395V635.64C720.185 637.116 721.381 638.312 722.857 638.312H752.866V708.62H722.857C721.381 708.62 720.185 709.816 720.185 711.292V727.538C720.185 729.013 721.381 730.209 722.857 730.209H752.866H771.783C773.259 730.209 774.455 729.013 774.455 727.538V711.292V635.64V619.395C774.455 617.919 773.259 616.723 771.783 616.723Z" fill="#CCD7EE"/>
</g>
<defs>
<clipPath id="clip0_11452_10119">
<rect width="1336" height="816" fill="white"/>
</clipPath>
</defs>
</svg>
